<svg width="24" height="25" viewBox="0 0 24 25" fill="none" xmlns="http://www.w3.org/2000/svg">
<path d="M15.4345 9.93156C15.7469 9.61921 16.2533 9.61922 16.5657 9.93159V9.93159C16.8781 10.244 16.8781 10.7504 16.5657 11.0628L11.9313 15.6972C11.7813 15.8472 11.5778 15.9314 11.3657 15.9314C11.1536 15.9314 10.9501 15.8472 10.8001 15.6972L8.16572 13.0628C7.85334 12.7504 7.85333 12.244 8.16572 11.9316V11.9316C8.47809 11.6192 8.98453 11.6192 9.29692 11.9315L11.3657 14L15.4345 9.93156Z" stroke="white" stroke-width="1.6"/>
<path d="M22 12.5C22 18.0228 17.5228 22.5 12 22.5C6.47715 22.5 2 18.0228 2 12.5C2 6.97715 6.47715 2.5 12 2.5C17.5228 2.5 22 6.97715 22 12.5Z" stroke="white" stroke-width="2"/>
</svg>
