<svg width="24" height="25" viewBox="0 0 24 25" fill="none" xmlns="http://www.w3.org/2000/svg">
<path d="M18 1.82886H6.00002C5.57568 1.82886 5.16871 1.99743 4.86865 2.29749C4.5686 2.59754 4.40002 3.00451 4.40002 3.42886V5.43326L4.40202 5.58686C4.43871 6.9176 4.94823 8.19175 5.83922 9.18086L8.58522 12.2301L5.84002 15.2761C4.9132 16.3047 4.40021 17.6402 4.40002 19.0249V21.0289C4.40002 21.4532 4.5686 21.8602 4.86865 22.1602C5.16871 22.4603 5.57568 22.6289 6.00002 22.6289H18C18.4244 22.6289 18.8313 22.4603 19.1314 22.1602C19.4315 21.8602 19.6 21.4532 19.6 21.0289V19.0253L19.598 18.8717C19.5614 17.5403 19.0516 16.2655 18.16 15.2761L15.4144 12.2301L18.1608 9.18086C19.0872 8.15243 19.5999 6.81738 19.6 5.43326V3.42886C19.6 3.00451 19.4315 2.59754 19.1314 2.29749C18.8313 1.99743 18.4244 1.82886 18 1.82886ZM6.00002 3.42886H18V5.43326C18 6.42166 17.6336 7.37566 16.972 8.11046L13.7432 11.6953C13.6109 11.8422 13.5377 12.0329 13.5377 12.2307C13.5377 12.4284 13.6109 12.6191 13.7432 12.7661L16.9712 16.3473C17.6334 17.0821 17.9999 18.0361 18 19.0253V21.0289H6.00002V19.0253C6.00002 18.0365 6.36682 17.0821 7.02882 16.3473L10.2568 12.7661C10.3892 12.6191 10.4624 12.4284 10.4624 12.2307C10.4624 12.0329 10.3892 11.8422 10.2568 11.6953L7.02802 8.11046C6.36618 7.37567 5.99995 6.42177 6.00002 5.43286V3.42886Z" stroke="white" stroke-width="1.6"/>
<path d="M16 17V18C16 18.1313 15.9793 18.2614 15.9391 18.3827C15.8989 18.504 15.84 18.6142 15.7657 18.7071C15.6914 18.8 15.6032 18.8736 15.5061 18.9239C15.4091 18.9741 15.3051 19 15.2 19H8.8C8.69494 19 8.59091 18.9741 8.49385 18.9239C8.39679 18.8736 8.3086 18.8 8.23431 18.7071C8.16003 18.6142 8.1011 18.504 8.0609 18.3827C8.02069 18.2614 8 18.1313 8 18V17H16Z" fill="white"/>
</svg>
