<svg width="1122" height="123" viewBox="0 0 1122 123" fill="none" xmlns="http://www.w3.org/2000/svg">
<g filter="url(#filter0_i_3953_3771)">
<path d="M12.0318 2.17157C12.782 1.42143 13.7994 1 14.8602 1H39.6864L49.2203 13.2034H142.144H385.449L394.602 1H1096.59L1121 24.6441V109.525L1108.8 121.729H5.00002C2.79088 121.729 1 119.938 1 117.729V14.8602C1 13.7994 1.42143 12.782 2.17157 12.0318L12.0318 2.17157Z" fill="#1D1C20"/>
</g>
<path d="M12.0318 2.17157C12.782 1.42143 13.7994 1 14.8602 1H39.6864L49.2203 13.2034H142.144H385.449L394.602 1H1096.59L1121 24.6441V109.525L1108.8 121.729H5.00002C2.79088 121.729 1 119.938 1 117.729V14.8602C1 13.7994 1.42143 12.782 2.17157 12.0318L12.0318 2.17157Z" stroke="url(#paint0_linear_3953_3771)" stroke-width="0.76"/>
<defs>
<filter id="filter0_i_3953_3771" x="0.619995" y="0.620117" width="1120.76" height="121.489" filterUnits="userSpaceOnUse" color-interpolation-filters="sRGB">
<feFlood flood-opacity="0" result="BackgroundImageFix"/>
<feBlend mode="normal" in="SourceGraphic" in2="BackgroundImageFix" result="shape"/>
<feColorMatrix in="SourceAlpha" type="matrix" values="0 0 0 0 0 0 0 0 0 0 0 0 0 0 0 0 0 0 127 0" result="hardAlpha"/>
<feOffset/>
<feGaussianBlur stdDeviation="10"/>
<feComposite in2="hardAlpha" operator="arithmetic" k2="-1" k3="1"/>
<feColorMatrix type="matrix" values="0 0 0 0 1 0 0 0 0 1 0 0 0 0 1 0 0 0 0.1 0"/>
<feBlend mode="normal" in2="shape" result="effect1_innerShadow_3953_3771"/>
</filter>
<linearGradient id="paint0_linear_3953_3771" x1="-27.4375" y1="61.3644" x2="1320.71" y2="61.3644" gradientUnits="userSpaceOnUse">
<stop stop-color="#76EED8"/>
<stop offset="0.118756" stop-color="#76EE99"/>
<stop offset="0.291667" stop-color="#4891FF"/>
<stop offset="0.452857" stop-color="#CB37FF"/>
<stop offset="0.642525" stop-color="#EF76B6"/>
<stop offset="0.865093" stop-color="#FFD159" stop-opacity="0.2"/>
</linearGradient>
</defs>
</svg>
