<svg width="89" height="88" viewBox="0 0 89 88" fill="none" xmlns="http://www.w3.org/2000/svg">
<path d="M44.1553 60.8706C57.7693 60.8706 68.8057 49.5834 68.8057 35.6599C68.8057 21.7365 57.7693 10.4493 44.1553 10.4493C30.5412 10.4493 19.5049 21.7365 19.5049 35.6599C19.5049 49.5834 30.5412 60.8706 44.1553 60.8706Z" fill="url(#paint0_linear_1260_16445)"/>
<path d="M44.3136 56.6135C32.998 56.6135 23.8249 47.2319 23.8249 35.6592C23.8249 24.0864 32.998 14.7048 44.3136 14.7048C55.6291 14.7048 64.8022 24.0864 64.8022 35.6592C64.8022 47.2319 55.6291 56.6135 44.3136 56.6135Z" fill="#0000FF"/>
<path d="M43.1358 19.2787C43.8708 19.2847 44.4619 19.8989 44.4561 20.6506L44.4446 22.1432L44.6694 22.1405C45.6651 22.2647 46.5818 22.5264 47.417 22.9284C48.6003 23.4902 49.5452 24.2601 50.2415 25.2415C50.6642 25.8308 50.9461 26.4654 51.1209 27.1344C51.368 28.0806 50.5618 28.8981 49.6043 28.8903C48.7453 28.8834 48.0725 28.1857 47.6635 27.4132C46.8505 25.8773 45.0798 25.1965 43.252 25.1818C42.2709 25.1738 41.4251 25.3293 40.7077 25.6388C39.9943 25.95 39.4474 26.375 39.0545 26.9087C38.672 27.4381 38.4778 28.0395 38.4726 28.7231C38.4682 29.2965 38.5968 29.773 38.846 30.1665C39.1164 30.5735 39.4626 30.9162 39.8878 31.1948C40.3299 31.4766 40.7934 31.7111 41.2788 31.8981C41.7772 32.0826 42.2331 32.232 42.6469 32.3469L42.6486 32.3474L44.9662 33.0057C45.5728 33.1738 46.2446 33.4039 46.9792 33.6943C47.7392 33.9918 48.4624 34.3949 49.1487 34.9022C49.8586 35.4137 50.4408 36.0681 50.8949 36.8615C51.3618 37.6775 51.5825 38.6623 51.5737 39.8009C51.5635 41.1221 51.2148 42.3203 50.5259 43.3871C49.8425 44.4573 48.8514 45.2957 47.5679 45.9078C46.6649 46.341 45.6341 46.6149 44.4794 46.7342L44.2548 46.7324L44.2429 48.2703C44.2371 49.0221 43.6367 49.6266 42.9017 49.6207C42.1666 49.6147 41.5755 49.0005 41.5813 48.2489L41.5932 46.7109L41.4446 46.7098C40.3881 46.5819 39.4321 46.3233 38.5792 45.9305C37.3491 45.3602 36.3719 44.5655 35.6599 43.5434L35.6591 43.5422C35.2324 42.923 34.9433 42.2557 34.7535 41.5559C34.4845 40.5632 35.3165 39.6837 36.3237 39.6918C37.2245 39.6991 37.9197 40.4433 38.3119 41.2726C38.7361 42.1695 39.4825 42.8303 40.5285 43.2171C41.282 43.4855 42.097 43.6244 42.9754 43.6315C44.0004 43.6398 44.912 43.4775 45.715 43.1509C46.5191 42.8162 47.1452 42.3553 47.6051 41.7736C48.0574 41.194 48.2879 40.5168 48.294 39.7287C48.2996 39.0116 48.1095 38.4547 47.7459 38.0306C47.3586 37.5787 46.8411 37.2024 46.1835 36.9068C45.5066 36.6026 44.7728 36.3344 43.9816 36.1027L43.9795 36.1021L41.1699 35.2565C39.3552 34.707 37.9 33.9258 36.8219 32.9015C35.7189 31.8537 35.1787 30.488 35.1915 28.8337C35.202 27.4646 35.5745 26.2605 36.3157 25.2343C37.057 24.2109 38.0446 23.4242 39.269 22.8733C40.009 22.5378 40.7977 22.3062 41.6341 22.1775L41.7825 22.1757L41.7945 20.6291C41.8003 19.8774 42.4008 19.2728 43.1358 19.2787Z" fill="white"/>
<path d="M13.8464 43.6932H51.0175V81.466H18.9907C16.1496 81.466 13.8464 79.111 13.8464 76.2052V43.6932Z" fill="#8EB4FF"/>
<path d="M51.0173 43.6913H76.5951V76.2032C76.5951 79.109 74.2924 81.465 71.4511 81.465H51.0173V43.6913Z" fill="#1765FF"/>
<path d="M2.73323 53.8959L13.4935 43.9204C13.6512 43.7742 13.8565 43.6932 14.0693 43.6932H51.0112L37.8521 55.2117C37.6969 55.3477 37.4991 55.4224 37.2946 55.4224H3.30906C2.52478 55.4224 2.15216 54.4346 2.73323 53.8959Z" fill="#AAC7FF"/>
<path d="M86.3315 53.9758L77.9932 44.0003C77.8303 43.8054 77.5924 43.6932 77.3415 43.6932H51.0112L60.5591 55.1154C60.722 55.3103 60.9601 55.4224 61.2108 55.4224H85.6797C86.412 55.4224 86.8072 54.5449 86.3315 53.9758Z" fill="#8EB4FF"/>
<path d="M75.2305 32.9953C81.0005 29.8885 83.2154 22.5861 80.1776 16.685C77.1398 10.7838 69.9997 8.51856 64.2297 11.6254C58.4597 14.7322 56.2448 22.0345 59.2826 27.9357C62.3203 33.8368 69.4605 36.1021 75.2305 32.9953Z" fill="#FEB535"/>
<path fill-rule="evenodd" clip-rule="evenodd" d="M68.74 34.3504C69.3496 30.8452 68.8654 27.1138 67.1189 23.7196C65.3715 20.3264 62.6387 17.8074 59.4694 16.3374C57.5457 19.7979 57.334 24.1577 59.2817 27.9414C61.2292 31.7244 64.8621 34.0132 68.74 34.3504Z" fill="url(#paint1_linear_1260_16445)"/>
<path d="M70.5465 27.8775C71.0634 27.8775 71.4829 27.4488 71.4829 26.9198V17.6978C71.4829 17.1688 71.0634 16.7401 70.5465 16.7401H69.9481C69.4312 16.7401 69.0116 17.1688 69.0116 17.6978V26.9198C69.0116 27.4488 69.4312 27.8775 69.9481 27.8775H70.5465ZM74.7559 23.5722C75.2728 23.5722 75.6923 23.1434 75.6923 22.6145V22.0031C75.6923 21.4742 75.2728 21.0454 74.7559 21.0454H65.7387C65.2218 21.0454 64.8022 21.4742 64.8022 22.0031V22.6145C64.8022 23.1434 65.2218 23.5722 65.7387 23.5722H74.7559Z" fill="white"/>
<defs>
<linearGradient id="paint0_linear_1260_16445" x1="68.8057" y1="37.658" x2="5.64201" y2="40.0671" gradientUnits="userSpaceOnUse">
<stop stop-color="#8EB4FF"/>
<stop offset="1" stop-color="#1765FF"/>
</linearGradient>
<linearGradient id="paint1_linear_1260_16445" x1="68.8214" y1="34.3195" x2="59.2133" y2="16.4752" gradientUnits="userSpaceOnUse">
<stop stop-color="#FFE4A6"/>
<stop offset="1" stop-color="#FEB535"/>
</linearGradient>
</defs>
</svg>
