<svg width="89" height="88" viewBox="0 0 89 88" fill="none" xmlns="http://www.w3.org/2000/svg">
<path d="M64.3484 18.1484H13.0237C8.17813 18.1484 4.25 22.0766 4.25 26.9221V74.737C4.25 79.5826 8.17813 83.5107 13.0237 83.5107H64.3484C69.194 83.5107 73.1221 79.5826 73.1221 74.737V26.9221C73.1221 22.0766 69.194 18.1484 64.3484 18.1484Z" fill="#3F8CFF"/>
<path d="M64.2337 20.0547H13.1384C9.5042 20.0547 6.55811 23.0008 6.55811 26.635V29.1026C6.55811 32.7368 9.5042 35.6829 13.1384 35.6829H64.2337C67.8679 35.6829 70.814 32.7368 70.814 29.1026V26.635C70.814 23.0008 67.8679 20.0547 64.2337 20.0547Z" fill="#0000FF"/>
<path fill-rule="evenodd" clip-rule="evenodd" d="M70.8133 28.4336H62.8906V35.6836H64.2323C67.8673 35.6836 70.8133 38.6297 70.8133 42.2639V43.1323V28.4336Z" fill="#0000FF"/>
<path fill-rule="evenodd" clip-rule="evenodd" d="M66.8665 35.6423C67.7668 34.1389 68.2844 32.3799 68.2844 30.4999C68.2844 24.9645 63.797 20.4771 58.2616 20.4771C52.7261 20.4771 48.2387 24.9645 48.2387 30.4999C48.2387 32.3799 48.7563 34.1389 49.6567 35.6423H66.8665Z" fill="#EC9D14"/>
<path d="M60.9949 23.7989C61.2753 23.9138 61.4096 24.2344 61.2947 24.5149L61.0665 25.0719L61.153 25.1053C61.5156 25.3045 61.8272 25.543 62.0868 25.8216C62.4556 26.2133 62.7019 26.6464 62.8214 27.1206C62.8949 27.406 62.9076 27.6868 62.8743 27.964C62.827 28.3561 62.3958 28.5385 62.0304 28.3888C61.7025 28.2545 61.5496 27.8902 61.5088 27.5382C61.4278 26.8387 60.8519 26.3123 60.1543 26.0265C59.7799 25.8731 59.4328 25.8016 59.1117 25.8075C58.7919 25.8146 58.5189 25.8899 58.2884 26.0294C58.0626 26.1689 57.8981 26.3643 57.7936 26.6194C57.706 26.8334 57.6838 27.0315 57.7202 27.217C57.7627 27.4108 57.8439 27.5921 57.9649 27.7617C58.0919 27.935 58.2342 28.0938 58.392 28.2382C58.5551 28.3837 58.7073 28.5095 58.8485 28.616L58.8491 28.6164L59.6377 29.2182C59.8447 29.3742 60.0674 29.5633 60.3051 29.7847C60.5515 30.0126 60.768 30.2743 60.9547 30.5695C61.1498 30.8698 61.2746 31.204 61.3295 31.5707C61.3859 31.9477 61.3228 32.3503 61.1487 32.7751C60.9467 33.2681 60.6336 33.6632 60.2099 33.957C59.7878 34.2528 59.2826 34.4147 58.6995 34.447C58.2888 34.4708 57.8531 34.4152 57.3932 34.2828L57.3075 34.2478L57.0723 34.8217C56.9574 35.1022 56.6368 35.2364 56.3564 35.1215C56.0759 35.0066 55.9416 34.686 56.0565 34.4055L56.2917 33.8316L56.2349 33.8084C55.8496 33.5985 55.5223 33.3551 55.2547 33.0773C54.8693 32.6753 54.6143 32.2279 54.4949 31.7361L54.4948 31.7355C54.4242 31.4383 54.4136 31.1442 54.4459 30.8531C54.4917 30.4402 54.9421 30.2386 55.3265 30.3961C55.6702 30.5369 55.8248 30.9221 55.8507 31.2927C55.8786 31.6935 56.0653 32.0552 56.4078 32.3604C56.6561 32.5764 56.9472 32.7534 57.2825 32.8907C57.6737 33.051 58.047 33.13 58.4034 33.1309C58.7614 33.1289 59.0702 33.0523 59.3336 32.9051C59.5936 32.7575 59.7834 32.5393 59.9039 32.2452C60.0135 31.9776 60.0242 31.74 59.9486 31.5254C59.8681 31.2969 59.7263 31.0768 59.5189 30.8652C59.3053 30.6476 59.0646 30.4347 58.7964 30.2266L58.7957 30.2261L57.8468 29.4787C57.2344 28.9948 56.7944 28.4792 56.5352 27.9305C56.27 27.3691 56.2679 26.7751 56.5208 26.1578C56.7301 25.6469 57.0532 25.2531 57.4909 24.9826C57.9281 24.7132 58.4241 24.5701 58.9756 24.5517C59.3091 24.5395 59.6458 24.5738 59.9853 24.6538L60.0424 24.6759L60.2789 24.0987C60.3938 23.8182 60.7143 23.684 60.9949 23.7989Z" fill="#FEF2DC"/>
<path fill-rule="evenodd" clip-rule="evenodd" d="M54.9671 35.6875C56.4922 33.1409 57.3689 30.1614 57.3689 26.9771C57.3689 17.6009 49.768 10 40.3918 10C31.0156 10 23.4146 17.6009 23.4146 26.9771C23.4146 30.1614 24.2913 33.1409 25.8165 35.6875H54.9671Z" fill="#FEB535"/>
<path d="M45.0023 16.4349C45.4774 16.6295 45.7048 17.1725 45.5101 17.6476L45.1236 18.5911L45.2701 18.6477C45.8843 18.9851 46.4122 19.3891 46.8518 19.8609C47.4765 20.5245 47.8938 21.2581 48.0962 22.0612C48.2206 22.5447 48.2422 23.0203 48.1857 23.4899C48.1057 24.154 47.3753 24.463 46.7563 24.2094C46.201 23.9819 45.9419 23.3648 45.8728 22.7687C45.7356 21.5837 44.7601 20.6921 43.5786 20.2081C42.9444 19.9482 42.3564 19.8271 41.8126 19.8371C41.2709 19.8491 40.8084 19.9766 40.418 20.2129C40.0355 20.4493 39.7569 20.7803 39.5799 21.2123C39.4314 21.5748 39.3938 21.9104 39.4555 22.2246C39.5275 22.5529 39.665 22.86 39.87 23.1472C40.0851 23.4407 40.3262 23.7097 40.5934 23.9544C40.8698 24.2008 41.1275 24.4139 41.3667 24.5943L41.3677 24.595L42.7034 25.6143C43.0541 25.8785 43.4314 26.1988 43.834 26.5738C44.2513 26.9598 44.618 27.4032 44.9342 27.9031C45.2647 28.4119 45.4761 28.978 45.5691 29.5991C45.6647 30.2377 45.5577 30.9195 45.2628 31.6392C44.9207 32.4742 44.3903 33.1434 43.6727 33.641C42.9577 34.1421 42.102 34.4163 41.1143 34.4711C40.4187 34.5113 39.6807 34.4172 38.9016 34.193L38.7564 34.1336L38.3581 35.1057C38.1635 35.5808 37.6205 35.8082 37.1454 35.6135C36.6703 35.4189 36.4429 34.8759 36.6375 34.4008L37.0358 33.4287L36.9397 33.3893C36.287 33.0339 35.7327 32.6216 35.2794 32.151C34.6265 31.47 34.1946 30.7122 33.9924 29.8793L33.9922 29.8782C33.8727 29.3748 33.8546 28.8766 33.9093 28.3836C33.9869 27.6842 34.7498 27.3427 35.4009 27.6094C35.9832 27.8479 36.2451 28.5004 36.2889 29.1281C36.3362 29.807 36.6524 30.4198 37.2325 30.9367C37.6531 31.3026 38.1462 31.6024 38.7141 31.835C39.3767 32.1065 40.0091 32.2403 40.6128 32.2418C41.2192 32.2384 41.7423 32.1087 42.1883 31.8593C42.6288 31.6093 42.9502 31.2397 43.1543 30.7416C43.34 30.2883 43.3582 29.8859 43.2301 29.5224C43.0937 29.1353 42.8536 28.7624 42.5022 28.4041C42.1405 28.0354 41.7327 27.6748 41.2785 27.3224L41.2773 27.3215L39.67 26.0556C38.6327 25.2359 37.8874 24.3626 37.4483 23.4331C36.9991 22.4822 36.9956 21.476 37.424 20.4304C37.7785 19.565 38.3258 18.8981 39.0671 18.4399C39.8077 17.9835 40.6479 17.7412 41.5819 17.7099C42.1469 17.6893 42.7172 17.7474 43.2923 17.8829L43.389 17.9203L43.7895 16.9427C43.9842 16.4676 44.5271 16.2402 45.0023 16.4349Z" fill="#FEF2DC"/>
<path d="M40.25 44C40.5449 44 40.8369 44.0581 41.1094 44.1709C41.3818 44.2838 41.6294 44.4492 41.8379 44.6577C42.0464 44.8662 42.2118 45.1138 42.3247 45.3863C42.4375 45.6587 42.4956 45.9507 42.4956 46.2456V57.7544H54.0044C54.6 57.7544 55.1711 57.991 55.5923 58.4121C56.0134 58.8332 56.25 59.4044 56.25 60C56.25 60.5956 56.0134 61.1668 55.5923 61.5879C55.1711 62.009 54.6 62.2456 54.0044 62.2456H42.4951L42.4956 73.7544C42.4956 74.35 42.259 74.9211 41.8379 75.3423C41.4168 75.7634 40.8456 76 40.25 76C39.6544 76 39.0832 75.7634 38.6621 75.3423C38.241 74.9211 38.0044 74.35 38.0044 73.7544L38.0038 62.2456H26.4956C25.9 62.2456 25.3289 62.009 24.9077 61.5879C24.4866 61.1668 24.25 60.5956 24.25 60C24.25 59.4044 24.4866 58.8332 24.9077 58.4121C25.3289 57.991 25.9 57.7544 26.4956 57.7544H38.0044V46.2456C38.0044 45.65 38.241 45.0789 38.6621 44.6577C39.0832 44.2366 39.6544 44 40.25 44Z" fill="#9ABCFF"/>
<path d="M77.8505 55.0015L61.4705 55.5628C59.9825 55.6138 58.9345 57.045 59.3365 58.4789L63.6505 73.8905C64.1955 75.8355 66.8055 76.1825 67.8385 74.4465L69.2765 72.0305C69.9775 70.8525 71.5475 70.5465 72.6395 71.3745L77.3735 74.9645C78.3845 75.7315 79.8265 75.5335 80.5925 74.5225L83.3805 70.8465C84.1475 69.8355 83.9495 68.3945 82.9375 67.6275L78.2065 64.0395C77.1135 63.2105 76.9855 61.6135 77.9335 60.6215L79.5915 58.885C81.0135 57.3953 79.9095 54.9309 77.8505 55.0015Z" fill="#00E89A"/>
</svg>
