<svg width="89" height="88" viewBox="0 0 89 88" fill="none" xmlns="http://www.w3.org/2000/svg">
<path d="M65.2719 19.1314H18.6828C14.9025 19.1314 11.8379 22.196 11.8379 25.9763V68.3944C11.8379 72.1747 14.9025 75.2393 18.6828 75.2393H65.2719C69.0522 75.2393 72.1168 72.1747 72.1168 68.3944V25.9763C72.1168 22.196 69.0522 19.1314 65.2719 19.1314Z" fill="#75A4FF"/>
<path fill-rule="evenodd" clip-rule="evenodd" d="M72.1167 32.2624H11.8379V25.9763C11.8379 22.196 14.9024 19.1314 18.6828 19.1314H65.2716C69.0525 19.1314 72.1167 22.1961 72.1167 25.9764V32.2624Z" fill="url(#paint0_linear_1260_16393)"/>
<path d="M20.5835 44.8316H60.758" stroke="white" stroke-width="4" stroke-linecap="round"/>
<path d="M20.5835 59.0648H45.6047" stroke="white" stroke-width="4" stroke-linecap="round"/>
<path d="M80.8617 56.4137L66.2243 56.9153C64.8946 56.9608 63.9581 58.2398 64.3173 59.5211L68.1723 73.2932C68.6594 75.0312 70.9917 75.3413 71.9148 73.79L73.1998 71.631C73.8262 70.5784 75.2292 70.3049 76.205 71.0448L80.4354 74.2529C81.3388 74.9383 82.6274 74.7614 83.3119 73.8579L85.8033 70.573C86.4887 69.6696 86.3118 68.3819 85.4075 67.6965L81.1798 64.4902C80.2031 63.7494 80.0887 62.3223 80.9358 61.4358L82.4174 59.884C83.6882 58.5528 82.7016 56.3506 80.8617 56.4137Z" fill="#00E89A"/>
<path d="M58.4794 28.203C59.1708 28.203 59.7313 27.6425 59.7313 26.951C59.7313 26.2596 59.1708 25.6991 58.4794 25.6991C57.7879 25.6991 57.2274 26.2596 57.2274 26.951C57.2274 27.6425 57.7879 28.203 58.4794 28.203Z" fill="#75A4FF"/>
<path d="M62.0091 28.203C62.7006 28.203 63.2611 27.6425 63.2611 26.951C63.2611 26.2596 62.7006 25.6991 62.0091 25.6991C61.3177 25.6991 60.7572 26.2596 60.7572 26.951C60.7572 27.6425 61.3177 28.203 62.0091 28.203Z" fill="#75A4FF"/>
<path d="M65.5397 28.203C66.2311 28.203 66.7916 27.6425 66.7916 26.951C66.7916 26.2596 66.2311 25.6991 65.5397 25.6991C64.8482 25.6991 64.2877 26.2596 64.2877 26.951C64.2877 27.6425 64.8482 28.203 65.5397 28.203Z" fill="#75A4FF"/>
<path d="M12.5942 46.6352C20.5324 49.8873 29.604 46.0884 32.856 38.1502C36.1081 30.212 32.3093 21.1405 24.3711 17.8884C16.4329 14.6363 7.36134 18.4352 4.10926 26.3734C0.857171 34.3116 4.65602 43.3831 12.5942 46.6352Z" fill="url(#paint1_linear_1260_16393)"/>
<path d="M13.6806 44.2463C7.08258 41.5433 3.92509 34.0033 6.62814 27.4053C9.33118 20.8073 16.8712 17.6498 23.4692 20.3528C30.0672 23.0559 33.2246 30.5959 30.5216 37.1939C27.8186 43.7919 20.2786 46.9493 13.6806 44.2463Z" fill="#1765FF"/>
<path d="M20.3887 25.2592C19.8934 25.1424 19.4022 25.0924 18.9155 25.1101C18.111 25.1371 17.3873 25.3458 16.7494 25.7389C16.1109 26.1336 15.6395 26.708 15.3342 27.4533C14.9652 28.354 14.9682 29.2207 15.3551 30.0397C15.7333 30.8403 16.3752 31.5926 17.2687 32.2986L18.6531 33.3889L18.6541 33.3897C19.0454 33.6933 19.3966 34.0039 19.7082 34.3215C20.0109 34.63 20.2177 34.9513 20.3351 35.2847C20.4455 35.5977 20.4298 35.9444 20.2699 36.3348C20.0941 36.7638 19.8172 37.0821 19.4378 37.2975C19.0536 37.5124 18.6031 37.624 18.0808 37.627C17.5608 37.6257 17.0161 37.5104 16.4454 37.2766C15.9562 37.0762 15.5315 36.818 15.1692 36.5029C14.6696 36.0576 14.3972 35.5297 14.3565 34.945C14.3187 34.4043 14.0931 33.8424 13.5916 33.6369C13.0308 33.4071 12.3736 33.7014 12.3069 34.3037C12.2598 34.7284 12.2753 35.1575 12.3782 35.5911L12.3784 35.592C12.5525 36.3095 12.9245 36.9621 13.4869 37.5488C13.8773 37.9541 14.3548 38.3092 14.917 38.6154L16.6068 39.3077C17.2779 39.5007 17.9136 39.5817 18.5127 39.5472C19.3636 39.5 20.1005 39.2637 20.7164 38.8322C21.3345 38.4036 21.7913 37.8272 22.086 37.1079C22.34 36.488 22.4321 35.9008 22.3497 35.3507C22.2697 34.8157 22.0876 34.3281 21.8029 33.8899C21.5306 33.4593 21.2148 33.0774 20.8554 32.7449C20.5085 32.4219 20.1835 32.146 19.8815 31.9185L18.731 31.0405L18.7302 31.0399C18.5241 30.8845 18.3021 30.7009 18.0641 30.4888C17.8339 30.278 17.6262 30.0462 17.4409 29.7934C17.2644 29.5461 17.146 29.2816 17.0839 28.9988C17.0309 28.7281 17.0632 28.4391 17.1911 28.1269C17.3435 27.7548 17.5835 27.4697 17.913 27.2661C18.2492 27.0625 18.6477 26.9527 19.1141 26.9424C19.5826 26.9338 20.0891 27.0381 20.6353 27.2618C21.653 27.6788 22.4933 28.4468 22.6114 29.4675C22.6709 29.9809 22.8941 30.5125 23.3724 30.7084C23.9055 30.9268 24.5346 30.6606 24.6035 30.0886C24.6523 29.6842 24.6336 29.2745 24.5265 28.8581C24.3522 28.1664 23.9927 27.5344 23.4546 26.9629C23.076 26.5565 22.6212 26.2085 22.0923 25.9179L20.3887 25.2592Z" fill="white"/>
<path d="M21.558 24.7515L21.0248 26.053L21.558 24.7515Z" fill="black"/>
<path d="M21.558 24.7515L21.0248 26.053" stroke="white" stroke-width="1.81364" stroke-linecap="round"/>
<path d="M15.9951 38.3354L15.3981 39.7927L15.9951 38.3354Z" fill="black"/>
<path d="M15.9951 38.3354L15.3981 39.7927" stroke="white" stroke-width="1.81364" stroke-linecap="round"/>
<defs>
<linearGradient id="paint0_linear_1260_16393" x1="24.6428" y1="6.4982" x2="1.90206" y2="45.6722" gradientUnits="userSpaceOnUse">
<stop stop-color="#1765FF"/>
<stop offset="1" stop-color="#1765FF"/>
</linearGradient>
<linearGradient id="paint1_linear_1260_16393" x1="32.3896" y1="39.2895" x2="3.42774" y2="28.0671" gradientUnits="userSpaceOnUse">
<stop stop-color="#0019BD"/>
<stop offset="1" stop-color="#1765FF"/>
</linearGradient>
</defs>
</svg>
