<svg width="89" height="88" viewBox="0 0 89 88" fill="none" xmlns="http://www.w3.org/2000/svg">
<path d="M63.2764 18.1484H12.2267C7.40708 18.1484 3.5 22.0765 3.5 26.9221V74.737C3.5 79.5826 7.40708 83.5107 12.2267 83.5107H63.2764C68.096 83.5107 72.0031 79.5826 72.0031 74.737V26.9221C72.0031 22.0765 68.096 18.1484 63.2764 18.1484Z" fill="#3F8CFF"/>
<path d="M63.1623 20.0547H12.3407C8.72596 20.0547 5.79565 23.0008 5.79565 26.635V29.1026C5.79565 32.7368 8.72596 35.6829 12.3407 35.6829H63.1623C66.777 35.6829 69.7073 32.7368 69.7073 29.1026V26.635C69.7073 23.0008 66.777 20.0547 63.1623 20.0547Z" fill="#0000FF"/>
<path fill-rule="evenodd" clip-rule="evenodd" d="M69.7065 28.4336H61.8263V35.6836H63.1608C66.7763 35.6836 69.7065 38.6297 69.7065 42.2639V43.1323V28.4336Z" fill="#0000FF"/>
<path fill-rule="evenodd" clip-rule="evenodd" d="M53.9453 35.6875C55.4623 33.1409 56.3343 30.1614 56.3343 26.9771C56.3343 17.6009 48.7741 10 39.4481 10C30.1222 10 22.5619 17.6009 22.5619 26.9771C22.5619 30.1614 23.4339 33.1409 24.9509 35.6875H53.9453Z" fill="#FEB535"/>
<path d="M44.0341 16.4349C44.5066 16.6295 44.7328 17.1725 44.5391 17.6476L44.1547 18.5911L44.3004 18.6477C44.9113 18.9851 45.4364 19.3891 45.8736 19.8609C46.495 20.5245 46.9101 21.2581 47.1114 22.0612C47.2351 22.5447 47.2566 23.0203 47.2004 23.4899C47.1208 24.154 46.3943 24.463 45.7787 24.2094C45.2263 23.9819 44.9686 23.3648 44.8999 22.7687C44.7634 21.5837 43.7932 20.6921 42.618 20.2081C41.9872 19.9482 41.4023 19.8271 40.8614 19.8371C40.3226 19.8491 39.8626 19.9766 39.4743 20.2129C39.0939 20.4493 38.8168 20.7803 38.6407 21.2123C38.493 21.5748 38.4556 21.9104 38.517 22.2246C38.5886 22.5529 38.7254 22.86 38.9293 23.1472C39.1432 23.4407 39.383 23.7097 39.6488 23.9544C39.9237 24.2008 40.18 24.4139 40.4179 24.5943L40.4189 24.595L41.7475 25.6143C42.0963 25.8785 42.4716 26.1988 42.872 26.5738C43.2871 26.9598 43.6518 27.4032 43.9663 27.9031C44.2951 28.4119 44.5053 28.978 44.5978 29.5991C44.6929 30.2377 44.5865 30.9195 44.2932 31.6392C43.9529 32.4742 43.4253 33.1434 42.7116 33.641C42.0004 34.1421 41.1493 34.4163 40.1669 34.4711C39.475 34.5113 38.741 34.4172 37.966 34.193L37.8216 34.1336L37.4255 35.1057C37.2319 35.5808 36.6918 35.8082 36.2193 35.6135C35.7467 35.4189 35.5205 34.8759 35.7141 34.4008L36.1102 33.4287L36.0147 33.3893C35.3655 33.0339 34.8141 32.6216 34.3633 32.151C33.7138 31.47 33.2843 30.7122 33.0831 29.8793L33.0829 29.8782C32.9641 29.3748 32.9461 28.8766 33.0005 28.3836C33.0777 27.6842 33.8365 27.3427 34.4841 27.6094C35.0633 27.8479 35.3238 28.5004 35.3673 29.1281C35.4144 29.807 35.7289 30.4198 36.3059 30.9367C36.7242 31.3026 37.2147 31.6024 37.7795 31.835C38.4386 32.1065 39.0676 32.2403 39.6681 32.2418C40.2712 32.2384 40.7915 32.1087 41.2351 31.8593C41.6733 31.6093 41.993 31.2397 42.196 30.7416C42.3807 30.2883 42.3988 29.8859 42.2714 29.5224C42.1357 29.1353 41.8969 28.7624 41.5474 28.4041C41.1876 28.0354 40.782 27.6748 40.3302 27.3224L40.329 27.3215L38.7303 26.0556C37.6986 25.2359 36.9573 24.3626 36.5205 23.4331C36.0737 22.4822 36.0703 21.476 36.4964 20.4304C36.849 19.565 37.3933 18.8981 38.1307 18.4399C38.8673 17.9835 39.703 17.7412 40.632 17.7099C41.194 17.6893 41.7612 17.7474 42.3332 17.8829L42.4294 17.9203L42.8278 16.9427C43.0214 16.4676 43.5614 16.2402 44.0341 16.4349Z" fill="#FEF2DC"/>
<path d="M73.1945 49.1099H73.1356C65.9914 49.1099 60.2309 54.9013 60.2693 62.0455C60.3077 69.1896 66.1304 74.9811 73.2746 74.9811H73.3334C80.4777 74.9811 86.2381 69.1896 86.1998 62.0455C86.1614 54.9013 80.3387 49.1099 73.1945 49.1099Z" fill="#00E89A"/>
<path fill-rule="evenodd" clip-rule="evenodd" d="M80.9491 56.6448C81.4504 57.1284 81.4673 57.9296 80.9869 58.4343L72.4329 67.4081C72.2002 67.6517 71.8799 67.7927 71.5437 67.7977C71.2085 67.8037 70.8843 67.6737 70.6436 67.4371L65.5112 62.3893C65.0149 61.9005 65.0059 61.0992 65.4913 60.5996C65.9777 60.0999 66.7754 60.0911 67.2717 60.5799L71.495 64.7335L79.1687 56.6829C79.6501 56.1782 80.4468 56.1612 80.9491 56.6448Z" fill="white"/>
</svg>
