<svg width="89" height="88" viewBox="0 0 89 88" fill="none" xmlns="http://www.w3.org/2000/svg">
<path d="M44.4053 60.8705C58.0193 60.8705 69.0557 49.5833 69.0557 35.6599C69.0557 21.7364 58.0193 10.4492 44.4053 10.4492C30.7912 10.4492 19.7549 21.7364 19.7549 35.6599C19.7549 49.5833 30.7912 60.8705 44.4053 60.8705Z" fill="url(#paint0_linear_1260_16525)"/>
<path d="M44.5636 56.6135C33.248 56.6135 24.0749 47.2319 24.0749 35.6592C24.0749 24.0864 33.248 14.7048 44.5636 14.7048C55.8791 14.7048 65.0522 24.0864 65.0522 35.6592C65.0522 47.2319 55.8791 56.6135 44.5636 56.6135Z" fill="#0000FF"/>
<path d="M43.3858 19.2787C44.1208 19.2847 44.7119 19.8989 44.7061 20.6506L44.6946 22.1432L44.9194 22.1405C45.9151 22.2647 46.8318 22.5264 47.667 22.9284C48.8503 23.4902 49.7952 24.2601 50.4915 25.2415C50.9142 25.8308 51.1961 26.4654 51.3709 27.1344C51.618 28.0806 50.8118 28.8981 49.8543 28.8903C48.9953 28.8834 48.3225 28.1857 47.9135 27.4132C47.1005 25.8773 45.3298 25.1965 43.502 25.1818C42.5209 25.1738 41.6751 25.3293 40.9577 25.6388C40.2443 25.95 39.6974 26.375 39.3045 26.9087C38.922 27.4381 38.7278 28.0395 38.7226 28.7231C38.7182 29.2965 38.8468 29.773 39.096 30.1665C39.3664 30.5735 39.7126 30.9162 40.1378 31.1948C40.5799 31.4766 41.0434 31.7111 41.5288 31.8981C42.0272 32.0826 42.4831 32.232 42.8969 32.3469L42.8986 32.3474L45.2162 33.0057C45.8228 33.1738 46.4946 33.4039 47.2292 33.6943C47.9892 33.9918 48.7124 34.3949 49.3987 34.9022C50.1086 35.4137 50.6908 36.0681 51.1449 36.8615C51.6118 37.6775 51.8325 38.6623 51.8237 39.8009C51.8135 41.1221 51.4648 42.3203 50.7759 43.3871C50.0925 44.4573 49.1014 45.2957 47.8179 45.9078C46.9149 46.341 45.8841 46.6149 44.7294 46.7342L44.5048 46.7324L44.4929 48.2703C44.4871 49.0221 43.8867 49.6266 43.1517 49.6207C42.4166 49.6147 41.8255 49.0005 41.8313 48.2489L41.8432 46.7109L41.6946 46.7098C40.6381 46.5819 39.6821 46.3233 38.8292 45.9305C37.5991 45.3602 36.6219 44.5655 35.9099 43.5434L35.9091 43.5422C35.4824 42.923 35.1933 42.2557 35.0035 41.5559C34.7345 40.5632 35.5665 39.6837 36.5737 39.6918C37.4745 39.6991 38.1697 40.4433 38.5619 41.2726C38.9861 42.1695 39.7325 42.8303 40.7785 43.2171C41.532 43.4855 42.347 43.6244 43.2254 43.6315C44.2504 43.6398 45.162 43.4775 45.965 43.1509C46.7691 42.8162 47.3952 42.3553 47.8551 41.7736C48.3074 41.194 48.5379 40.5168 48.544 39.7287C48.5496 39.0116 48.3595 38.4547 47.9959 38.0306C47.6086 37.5787 47.0911 37.2024 46.4335 36.9068C45.7566 36.6026 45.0228 36.3344 44.2316 36.1027L44.2295 36.1021L41.4199 35.2565C39.6052 34.707 38.15 33.9258 37.0719 32.9015C35.9689 31.8537 35.4287 30.488 35.4415 28.8337C35.452 27.4646 35.8245 26.2605 36.5657 25.2343C37.307 24.2109 38.2946 23.4242 39.519 22.8733C40.259 22.5378 41.0477 22.3062 41.8841 22.1775L42.0325 22.1757L42.0445 20.6291C42.0503 19.8774 42.6508 19.2728 43.3858 19.2787Z" fill="white"/>
<path d="M14.0964 43.6931H51.2675V81.466H19.2407C16.3996 81.466 14.0964 79.1109 14.0964 76.2051V43.6931Z" fill="#8EB4FF"/>
<path d="M51.2673 43.6913H76.8451V76.2032C76.8451 79.109 74.5424 81.465 71.7011 81.465H51.2673V43.6913Z" fill="#1765FF"/>
<path d="M2.98323 53.8958L13.7435 43.9204C13.9012 43.7741 14.1065 43.6931 14.3193 43.6931H51.2612L38.1021 55.2117C37.9469 55.3477 37.7491 55.4224 37.5446 55.4224H3.55906C2.77478 55.4224 2.40216 54.4346 2.98323 53.8958Z" fill="#AAC7FF"/>
<path d="M86.5815 53.9757L78.2432 44.0003C78.0803 43.8054 77.8424 43.6931 77.5915 43.6931H51.2612L60.8091 55.1153C60.972 55.3102 61.2101 55.4224 61.4608 55.4224H85.9297C86.662 55.4224 87.0572 54.5448 86.5815 53.9757Z" fill="#8EB4FF"/>
<path d="M75.4805 32.9953C81.2505 29.8885 83.4654 22.5861 80.4276 16.685C77.3898 10.7838 70.2497 8.51856 64.4797 11.6254C58.7097 14.7322 56.4948 22.0345 59.5326 27.9357C62.5703 33.8368 69.7105 36.1021 75.4805 32.9953Z" fill="#FEB535"/>
<path fill-rule="evenodd" clip-rule="evenodd" d="M68.99 34.3504C69.5996 30.8452 69.1154 27.1138 67.3689 23.7196C65.6215 20.3264 62.8887 17.8074 59.7194 16.3374C57.7957 19.7979 57.584 24.1577 59.5317 27.9414C61.4792 31.7244 65.1121 34.0132 68.99 34.3504Z" fill="url(#paint1_linear_1260_16525)"/>
<path d="M70.7965 27.8776C71.3134 27.8776 71.7329 27.4488 71.7329 26.9199V17.6979C71.7329 17.1689 71.3134 16.7401 70.7965 16.7401H70.1981C69.6812 16.7401 69.2616 17.1689 69.2616 17.6979V26.9199C69.2616 27.4488 69.6812 27.8776 70.1981 27.8776H70.7965ZM75.0059 23.5723C75.5228 23.5723 75.9423 23.1435 75.9423 22.6145V22.0032C75.9423 21.4742 75.5228 21.0454 75.0059 21.0454H65.9887C65.4718 21.0454 65.0522 21.4742 65.0522 22.0032V22.6145C65.0522 23.1435 65.4718 23.5723 65.9887 23.5723H75.0059Z" fill="white"/>
<defs>
<linearGradient id="paint0_linear_1260_16525" x1="69.0557" y1="37.6579" x2="5.89201" y2="40.067" gradientUnits="userSpaceOnUse">
<stop stop-color="#8EB4FF"/>
<stop offset="1" stop-color="#1765FF"/>
</linearGradient>
<linearGradient id="paint1_linear_1260_16525" x1="69.0714" y1="34.3195" x2="59.4633" y2="16.4752" gradientUnits="userSpaceOnUse">
<stop stop-color="#FFE4A6"/>
<stop offset="1" stop-color="#FEB535"/>
</linearGradient>
</defs>
</svg>
