<svg width="89" height="88" viewBox="0 0 89 88" fill="none" xmlns="http://www.w3.org/2000/svg">
<path d="M65.7944 12.3783H62.6307V11.271C62.6307 9.84735 61.8398 7 58.5178 7C55.1959 7 54.0886 9.84735 54.0886 11.271V12.3783H25.9315V11.271C25.9315 9.84735 25.1405 7 21.8186 7C18.4967 7 17.3894 9.84735 17.3894 11.271V12.3783H14.0675C9.63828 12.3783 6 16.0166 6 20.4458V63.7889C6 68.2181 9.63828 71.8564 14.0675 71.8564H65.7944C70.2236 71.8564 73.8619 68.2181 73.8619 63.7889V20.4458C73.8619 16.0166 70.2236 12.3783 65.7944 12.3783Z" fill="#1765FF"/>
<path d="M14.3841 41.0101C14.5423 38.7955 16.5987 36.8972 18.9715 36.8972H24.508C26.7226 36.8972 28.6209 38.7955 28.6209 41.0101C28.6209 43.3829 26.7226 45.1229 24.508 45.1229H18.1806C15.8078 45.2811 14.0677 43.3829 14.3841 41.0101ZM14.3841 56.0378C14.5423 53.8231 16.5987 51.9249 18.9715 51.9249H24.508C26.7226 51.9249 28.6209 53.8231 28.6209 56.0378C28.6209 58.4105 26.7226 60.1506 24.508 60.1506H18.1806C15.8078 60.1506 14.0677 58.4105 14.3841 56.0378ZM34.1574 41.0101C34.3156 38.7955 36.372 36.8972 38.7448 36.8972H44.2813C46.4959 36.8972 48.3941 38.7955 48.3941 41.0101C48.3941 43.3829 46.4959 45.1229 44.2813 45.1229H37.9539C35.5811 45.2811 33.9992 43.3829 34.1574 41.0101ZM34.1574 56.0378C34.3156 53.8231 36.372 51.9249 38.7448 51.9249H44.2813C46.4959 51.9249 48.3941 53.8231 48.3941 56.0378C48.3941 58.4105 46.4959 60.1506 44.2813 60.1506H37.9539C35.5811 60.1506 33.9992 58.4105 34.1574 56.0378ZM55.6707 41.0101C55.8289 38.7955 57.8853 36.8972 60.2581 36.8972H65.7946C68.0092 36.8972 69.9075 38.7955 69.9075 41.0101C69.9075 43.3829 68.0092 45.1229 65.7946 45.1229H59.4672C57.0944 45.2811 55.5125 43.3829 55.6707 41.0101ZM55.6707 56.0378C55.8289 53.8231 57.8853 51.9249 60.2581 51.9249H65.7946C68.0092 51.9249 69.9075 53.8231 69.9075 56.0378C69.9075 58.4105 68.0092 60.1506 65.7946 60.1506H59.4672C57.0944 60.1506 55.5125 58.4105 55.6707 56.0378Z" fill="#0019BD"/>
<path d="M15.966 36.8972H22.6098C24.508 36.8972 25.9317 38.3208 25.9317 40.2191C25.9317 42.1173 24.508 43.541 22.6098 43.541H15.966C14.0677 43.541 12.644 42.1173 12.644 40.2191C12.644 38.479 14.0677 36.8972 15.966 36.8972ZM15.966 51.9248H22.6098C24.508 51.9248 25.9317 53.3485 25.9317 55.2468C25.9317 57.145 24.508 58.5687 22.6098 58.5687H15.966C14.0677 58.5687 12.644 57.145 12.644 55.2468C12.644 53.3485 14.0677 51.9248 15.966 51.9248ZM35.7392 36.8972H42.3831C44.2813 36.8972 45.705 38.3208 45.705 40.2191C45.705 42.1173 44.2813 43.541 42.3831 43.541H35.7392C33.841 43.541 32.4173 42.1173 32.4173 40.2191C32.4173 38.479 33.9992 36.8972 35.7392 36.8972ZM35.7392 51.9248H42.3831C44.2813 51.9248 45.705 53.3485 45.705 55.2468C45.705 57.145 44.2813 58.5687 42.3831 58.5687H35.7392C33.841 58.5687 32.4173 57.145 32.4173 55.2468C32.4173 53.3485 33.9992 51.9248 35.7392 51.9248ZM57.4108 36.8972H64.0546C65.9528 36.8972 67.3765 38.3208 67.3765 40.2191C67.3765 42.1173 65.9528 43.541 64.0546 43.541H57.4108C55.5125 43.541 54.0888 42.1173 54.0888 40.2191C53.9307 38.479 55.5125 36.8972 57.4108 36.8972ZM57.4108 51.9248H64.0546C65.9528 51.9248 67.3765 53.3485 67.3765 55.2468C67.3765 57.145 65.9528 58.5687 64.0546 58.5687H57.4108C55.5125 58.5687 54.0888 57.145 54.0888 55.2468C53.9307 53.3485 55.5125 51.9248 57.4108 51.9248ZM16.7569 20.2876H61.3654C63.7382 20.2876 65.4783 22.1858 65.4783 24.4004C65.4783 26.7732 63.58 28.5133 61.3654 28.5133H16.7569C14.3841 28.5133 12.644 26.615 12.644 24.4004C12.644 22.1858 14.5423 20.2876 16.7569 20.2876Z" fill="white"/>
<path d="M63.738 20.7622C64.8453 21.2368 65.6362 22.5023 65.6362 23.7677V25.3496C65.6362 27.2478 64.2126 28.6715 62.3143 28.6715H16.1239C14.7002 28.6715 13.5929 27.8806 13.1184 26.7733C13.5929 26.9315 14.0675 27.0897 14.5421 27.0897H60.5743C62.4725 27.0897 63.8962 25.666 63.8962 23.7677V22.1859C64.0544 21.7113 63.8962 21.2368 63.738 20.7622Z" fill="#0019BD"/>
<path d="M64.6871 81.0314C75.1274 81.0314 83.6694 72.6475 83.6694 62.2072C83.6694 51.7669 75.2856 43.3831 64.6871 43.3831C54.0886 43.3831 47.1284 51.7669 47.1284 62.2072C47.1284 72.6475 54.2468 81.0314 64.6871 81.0314Z" fill="#E89D1A"/>
<path d="M42.3831 61.8908C42.3829 64.3214 42.8656 66.7282 43.8035 68.9738C44.7415 71.2195 46.1164 73.2599 47.8497 74.9786C49.583 76.6974 51.6408 78.0608 53.9056 78.991C56.1703 79.9211 58.5977 80.3999 61.049 80.3999C63.5004 80.3999 65.9278 79.9211 68.1925 78.991C70.4572 78.0608 72.515 76.6974 74.2483 74.9786C75.9817 73.2599 77.3565 71.2195 78.2945 68.9738C79.2325 66.7282 79.7152 64.3214 79.715 61.8908C79.7152 59.4602 79.2325 57.0534 78.2945 54.8078C77.3565 52.5622 75.9817 50.5217 74.2483 48.803C72.515 47.0842 70.4572 45.7208 68.1925 44.7907C65.9278 43.8605 63.5004 43.3817 61.049 43.3817C58.5977 43.3817 56.1703 43.8605 53.9056 44.7907C51.6408 45.7208 49.583 47.0842 47.8497 48.803C46.1164 50.5217 44.7415 52.5622 43.8035 54.8078C42.8656 57.0534 42.3829 59.4602 42.3831 61.8908Z" fill="#FEB535"/>
<path d="M66.6073 50.8946C67.1421 51.1098 67.398 51.71 67.1789 52.2352L66.7438 53.2782L66.9087 53.3408C67.6 53.7138 68.1942 54.1604 68.689 54.6819C69.3921 55.4155 69.8618 56.2265 70.0896 57.1143C70.2296 57.6488 70.2539 58.1745 70.1903 58.6936C70.1003 59.4278 69.2782 59.7694 68.5815 59.489C67.9565 59.2375 67.6649 58.5553 67.5871 57.8964C67.4327 56.5864 66.3347 55.6008 65.0049 55.0658C64.2911 54.7784 63.6293 54.6446 63.0172 54.6556C62.4075 54.6689 61.8869 54.8098 61.4475 55.0711C61.017 55.3324 60.7034 55.6983 60.5042 56.1759C60.3371 56.5766 60.2948 56.9476 60.3642 57.2949C60.4453 57.6578 60.6 57.9973 60.8307 58.3148C61.0728 58.6393 61.3442 58.9366 61.6449 59.2071C61.956 59.4795 62.2461 59.7151 62.5153 59.9145L62.5164 59.9153L64.0198 61.0421C64.4145 61.3341 64.8392 61.6882 65.2924 62.1028C65.762 62.5295 66.1748 63.0196 66.5307 63.5722C66.9027 64.1347 67.1406 64.7605 67.2453 65.4471C67.3529 66.153 67.2324 66.9067 66.9005 67.7023C66.5155 68.6254 65.9185 69.3652 65.1108 69.9153C64.306 70.4692 63.3429 70.7723 62.2312 70.8329C61.4483 70.8773 60.6177 70.7733 59.7408 70.5255L59.5773 70.4598L59.129 71.5344C58.91 72.0596 58.2989 72.311 57.7641 72.0958C57.2294 71.8806 56.9734 71.2804 57.1925 70.7552L57.6408 69.6806L57.5326 69.637C56.798 69.2441 56.1741 68.7883 55.6639 68.2681C54.929 67.5153 54.4429 66.6776 54.2153 65.7568L54.2151 65.7556C54.0806 65.1991 54.0602 64.6484 54.1218 64.1034C54.2091 63.3303 55.0678 62.9527 55.8006 63.2476C56.456 63.5112 56.7508 64.2325 56.8001 64.9264C56.8533 65.6769 57.2092 66.3543 57.8621 66.9258C58.3355 67.3302 58.8905 67.6617 59.5297 67.9188C60.2755 68.2189 60.9873 68.3668 61.6668 68.3685C62.3493 68.3647 62.9381 68.2214 63.4401 67.9457C63.9359 67.6693 64.2976 67.2607 64.5273 66.7101C64.7363 66.209 64.7568 65.7641 64.6126 65.3623C64.4591 64.9344 64.1889 64.5222 63.7934 64.1261C63.3863 63.7185 62.9273 63.3199 62.4161 62.9303L62.4147 62.9293L60.6056 61.5299C59.4381 60.6238 58.5993 59.6584 58.105 58.6308C57.5994 57.5797 57.5955 56.4674 58.0777 55.3115C58.4767 54.3548 59.0927 53.6176 59.927 53.1111C60.7606 52.6066 61.7063 52.3387 62.7575 52.3041C63.3935 52.2813 64.0354 52.3456 64.6827 52.4953L64.7915 52.5367L65.2423 51.456C65.4614 50.9308 66.0725 50.6794 66.6073 50.8946Z" fill="#FEF2DC"/>
</svg>
