<svg width="88" height="88" viewBox="0 0 88 88" fill="none" xmlns="http://www.w3.org/2000/svg">
<path d="M72.1919 12.6543H16.6696C11.4277 12.6543 7.17834 16.9037 7.17834 22.1456V73.871C7.17834 79.1129 11.4277 83.3623 16.6696 83.3623H72.1919C77.4338 83.3623 81.6832 79.1129 81.6832 73.871V22.1456C81.6832 16.9037 77.4338 12.6543 72.1919 12.6543Z" fill="#1765FF"/>
<path d="M72.0678 14.7164H16.7936C12.8622 14.7164 9.67517 17.9035 9.67517 21.8349V24.5043C9.67517 28.4358 12.8622 31.6228 16.7936 31.6228H72.0678C75.9993 31.6228 79.1863 28.4358 79.1863 24.5043V21.8349C79.1863 17.9035 75.9993 14.7164 72.0678 14.7164Z" fill="#0019BD"/>
<path fill-rule="evenodd" clip-rule="evenodd" d="M79.1855 23.7806H70.6149V31.6236H72.0663C75.9986 31.6236 79.1855 34.8106 79.1855 38.7421V39.6815V23.7806Z" fill="#0019BD"/>
<path fill-rule="evenodd" clip-rule="evenodd" d="M59.7018 31.7884C61.3516 29.0335 62.3 25.8103 62.3 22.3656C62.3 12.2225 54.0775 4 43.9344 4C33.7914 4 25.5687 12.2225 25.5687 22.3656C25.5687 25.8103 26.5171 29.0335 28.1671 31.7884H59.7018Z" fill="#FEB535"/>
<path d="M47.9913 30.3763C45.2006 30.3763 42.9318 28.1075 42.9318 25.3169V12.8165C42.9318 11.1383 41.5639 9.77043 39.8857 9.77043C38.2074 9.77043 36.8396 11.1383 36.8396 12.8165V27.0446C36.8396 27.6021 36.3891 28.0526 35.8315 28.0526C35.2739 28.0526 34.8235 27.6021 34.8235 27.0446V12.8165C34.8235 10.0259 37.0923 7.75708 39.8829 7.75708C42.6736 7.75708 44.9452 10.0259 44.9452 12.8165V25.3169C44.9452 26.9951 46.313 28.363 47.9913 28.363C49.6695 28.363 51.0374 26.9951 51.0374 25.3169V11.1163C51.0374 10.5587 51.4878 10.1083 52.0454 10.1083C52.603 10.1083 53.0535 10.5587 53.0535 11.1163V25.3169C53.0507 28.1048 50.7819 30.3763 47.9913 30.3763Z" fill="white"/>
<path d="M54.295 12.2645H49.7931C49.3289 12.2645 48.9087 11.9843 48.7302 11.5531C48.6429 11.3426 48.6201 11.1109 48.6646 10.8875C48.709 10.664 48.8189 10.4588 48.9801 10.2978L51.2324 8.04549C51.4494 7.8285 51.7406 7.70764 52.0455 7.70764C52.3503 7.70764 52.6442 7.8285 52.8585 8.04549L55.1081 10.2978C55.4377 10.6274 55.5365 11.1218 55.358 11.5531C55.1795 11.9843 54.762 12.2645 54.295 12.2645ZM35.8316 30.445C35.5267 30.445 35.2328 30.3242 35.0185 30.1072L32.7662 27.8548C32.4366 27.5252 32.3377 27.0308 32.5163 26.5996C32.6948 26.1684 33.1151 25.8882 33.5792 25.8882H38.0811C38.5453 25.8882 38.9656 26.1684 39.1441 26.5996C39.3226 27.0308 39.2238 27.5252 38.8942 27.8548L36.6446 30.1072C36.4303 30.3242 36.1392 30.445 35.8316 30.445Z" fill="white"/>
<path d="M52.6134 52.1108C52.6134 49.3494 54.852 47.1108 57.6134 47.1108H81.8216V63.3376H57.6134C54.852 63.3376 52.6134 61.0991 52.6134 58.3376V52.1108Z" fill="#00E89A"/>
<g filter="url(#filter0_d_1260_16476)">
<path d="M62.2651 49.6155L62.239 49.5895C59.0777 46.4282 53.9465 46.434 50.778 49.6025C47.6095 52.771 47.6037 57.9023 50.765 61.0636L50.791 61.0896C53.9523 64.2509 59.0836 64.2451 62.2521 61.0766C65.4205 57.9081 65.4264 52.7768 62.2651 49.6155Z" fill="#00E89A"/>
</g>
<defs>
<filter id="filter0_d_1260_16476" x="48.3978" y="47.2223" width="17.2344" height="17.2345" filterUnits="userSpaceOnUse" color-interpolation-filters="sRGB">
<feFlood flood-opacity="0" result="BackgroundImageFix"/>
<feColorMatrix in="SourceAlpha" type="matrix" values="0 0 0 0 0 0 0 0 0 0 0 0 0 0 0 0 0 0 127 0" result="hardAlpha"/>
<feOffset dx="1" dy="1"/>
<feComposite in2="hardAlpha" operator="out"/>
<feColorMatrix type="matrix" values="0 0 0 0 0 0 0 0 0 0 0 0 0 0 0 0 0 0 0.25 0"/>
<feBlend mode="normal" in2="BackgroundImageFix" result="effect1_dropShadow_1260_16476"/>
<feBlend mode="normal" in="SourceGraphic" in2="effect1_dropShadow_1260_16476" result="shape"/>
</filter>
</defs>
</svg>
