<svg width="89" height="88" viewBox="0 0 89 88" fill="none" xmlns="http://www.w3.org/2000/svg">
<path d="M64.5984 18.1484H13.2737C8.42813 18.1484 4.5 22.0765 4.5 26.9221V74.737C4.5 79.5826 8.42813 83.5107 13.2737 83.5107H64.5984C69.444 83.5107 73.3721 79.5826 73.3721 74.737V26.9221C73.3721 22.0765 69.444 18.1484 64.5984 18.1484Z" fill="#3F8CFF"/>
<path d="M64.4837 20.0547H13.3884C9.7542 20.0547 6.80811 23.0008 6.80811 26.635V29.1026C6.80811 32.7368 9.7542 35.6829 13.3884 35.6829H64.4837C68.1179 35.6829 71.064 32.7368 71.064 29.1026V26.635C71.064 23.0008 68.1179 20.0547 64.4837 20.0547Z" fill="#0000FF"/>
<path fill-rule="evenodd" clip-rule="evenodd" d="M71.0633 28.4336H63.1406V35.6836H64.4823C68.1173 35.6836 71.0633 38.6297 71.0633 42.2639V43.1323V28.4336Z" fill="#0000FF"/>
<path fill-rule="evenodd" clip-rule="evenodd" d="M67.1165 35.6424C68.0168 34.1389 68.5344 32.3799 68.5344 30.5C68.5344 24.9645 64.047 20.4772 58.5116 20.4772C52.9761 20.4772 48.4887 24.9645 48.4887 30.5C48.4887 32.3799 49.0063 34.1389 49.9067 35.6424H67.1165Z" fill="#EC9D14"/>
<path d="M61.2449 23.799C61.5253 23.9139 61.6596 24.2345 61.5447 24.5149L61.3165 25.072L61.403 25.1054C61.7656 25.3046 62.0772 25.5431 62.3368 25.8216C62.7056 26.2134 62.9519 26.6465 63.0714 27.1206C63.1449 27.4061 63.1576 27.6868 63.1243 27.9641C63.077 28.3561 62.6458 28.5386 62.2804 28.3889C61.9525 28.2545 61.7996 27.8902 61.7588 27.5383C61.6778 26.8387 61.1019 26.3123 60.4043 26.0266C60.0299 25.8732 59.6828 25.8017 59.3617 25.8076C59.0419 25.8147 58.7689 25.8899 58.5384 26.0294C58.3126 26.169 58.1481 26.3644 58.0436 26.6194C57.956 26.8335 57.9338 27.0316 57.9702 27.2171C58.0127 27.4109 58.0939 27.5922 58.2149 27.7618C58.3419 27.935 58.4842 28.0938 58.642 28.2383C58.8051 28.3838 58.9573 28.5096 59.0985 28.6161L59.0991 28.6165L59.8877 29.2183C60.0947 29.3742 60.3174 29.5633 60.5551 29.7847C60.8015 30.0126 61.018 30.2744 61.2047 30.5695C61.3998 30.8699 61.5246 31.2041 61.5795 31.5708C61.6359 31.9478 61.5728 32.3503 61.3987 32.7752C61.1967 33.2682 60.8836 33.6632 60.4599 33.957C60.0378 34.2529 59.5326 34.4147 58.9495 34.4471C58.5388 34.4708 58.1031 34.4153 57.6432 34.2829L57.5575 34.2478L57.3223 34.8217C57.2074 35.1022 56.8868 35.2365 56.6064 35.1215C56.3259 35.0066 56.1916 34.6861 56.3065 34.4056L56.5417 33.8317L56.4849 33.8084C56.0996 33.5986 55.7723 33.3552 55.5047 33.0774C55.1193 32.6753 54.8643 32.2279 54.7449 31.7362L54.7448 31.7356C54.6742 31.4384 54.6636 31.1442 54.6959 30.8532C54.7417 30.4403 55.1921 30.2387 55.5765 30.3961C55.9202 30.5369 56.0748 30.9221 56.1007 31.2927C56.1286 31.6935 56.3153 32.0553 56.6578 32.3605C56.9061 32.5765 57.1972 32.7535 57.5325 32.8908C57.9237 33.0511 58.297 33.1301 58.6534 33.131C59.0114 33.129 59.3202 33.0524 59.5836 32.9052C59.8436 32.7576 60.0334 32.5394 60.1539 32.2453C60.2635 31.9777 60.2742 31.7401 60.1986 31.5255C60.1181 31.297 59.9763 31.0768 59.7689 30.8653C59.5553 30.6476 59.3146 30.4347 59.0464 30.2267L59.0457 30.2262L58.0968 29.4788C57.4844 28.9949 57.0444 28.4793 56.7852 27.9305C56.52 27.3692 56.5179 26.7751 56.7708 26.1578C56.9801 25.6469 57.3032 25.2532 57.7409 24.9827C58.1781 24.7133 58.6741 24.5702 59.2256 24.5517C59.5591 24.5396 59.8958 24.5739 60.2353 24.6539L60.2924 24.6759L60.5289 24.0988C60.6438 23.8183 60.9643 23.6841 61.2449 23.799Z" fill="#FEF2DC"/>
<path fill-rule="evenodd" clip-rule="evenodd" d="M55.2171 35.6875C56.7422 33.1409 57.6189 30.1614 57.6189 26.9771C57.6189 17.6009 50.018 10 40.6418 10C31.2656 10 23.6646 17.6009 23.6646 26.9771C23.6646 30.1614 24.5413 33.1409 26.0665 35.6875H55.2171Z" fill="#FEB535"/>
<path d="M45.2523 16.4349C45.7274 16.6295 45.9548 17.1725 45.7601 17.6476L45.3736 18.5911L45.5201 18.6477C46.1343 18.9851 46.6622 19.3891 47.1018 19.8609C47.7265 20.5245 48.1438 21.2581 48.3462 22.0612C48.4706 22.5447 48.4922 23.0203 48.4357 23.4899C48.3557 24.154 47.6253 24.463 47.0063 24.2094C46.451 23.9819 46.1919 23.3648 46.1228 22.7687C45.9856 21.5837 45.0101 20.6921 43.8286 20.2081C43.1944 19.9482 42.6064 19.8271 42.0626 19.8371C41.5209 19.8491 41.0584 19.9766 40.668 20.2129C40.2855 20.4493 40.0069 20.7803 39.8299 21.2123C39.6814 21.5748 39.6438 21.9104 39.7055 22.2246C39.7775 22.5529 39.915 22.86 40.12 23.1472C40.3351 23.4407 40.5762 23.7097 40.8434 23.9544C41.1198 24.2008 41.3775 24.4139 41.6167 24.5943L41.6177 24.595L42.9534 25.6143C43.3041 25.8785 43.6814 26.1988 44.084 26.5738C44.5013 26.9598 44.868 27.4032 45.1842 27.9031C45.5147 28.4119 45.7261 28.978 45.8191 29.5991C45.9147 30.2377 45.8077 30.9195 45.5128 31.6392C45.1707 32.4742 44.6403 33.1434 43.9227 33.641C43.2077 34.1421 42.352 34.4163 41.3643 34.4711C40.6687 34.5113 39.9307 34.4172 39.1516 34.193L39.0064 34.1336L38.6081 35.1057C38.4135 35.5808 37.8705 35.8082 37.3954 35.6135C36.9203 35.4189 36.6929 34.8759 36.8875 34.4008L37.2858 33.4287L37.1897 33.3893C36.537 33.0339 35.9827 32.6216 35.5294 32.151C34.8765 31.47 34.4446 30.7122 34.2424 29.8793L34.2422 29.8782C34.1227 29.3748 34.1046 28.8766 34.1593 28.3836C34.2369 27.6842 34.9998 27.3427 35.6509 27.6094C36.2332 27.8479 36.4951 28.5004 36.5389 29.1281C36.5862 29.807 36.9024 30.4198 37.4825 30.9367C37.9031 31.3026 38.3962 31.6024 38.9641 31.835C39.6267 32.1065 40.2591 32.2403 40.8628 32.2418C41.4692 32.2384 41.9923 32.1087 42.4383 31.8593C42.8788 31.6093 43.2002 31.2397 43.4043 30.7416C43.59 30.2883 43.6082 29.8859 43.4801 29.5224C43.3437 29.1353 43.1036 28.7624 42.7522 28.4041C42.3905 28.0354 41.9827 27.6748 41.5285 27.3224L41.5273 27.3215L39.92 26.0556C38.8827 25.2359 38.1374 24.3626 37.6983 23.4331C37.2491 22.4822 37.2456 21.476 37.674 20.4304C38.0285 19.565 38.5758 18.8981 39.3171 18.4399C40.0577 17.9835 40.8979 17.7412 41.8319 17.7099C42.3969 17.6893 42.9672 17.7474 43.5423 17.8829L43.639 17.9203L44.0395 16.9427C44.2342 16.4676 44.7771 16.2402 45.2523 16.4349Z" fill="#FEF2DC"/>
<path d="M40.5 44C40.7949 44 41.0869 44.0581 41.3594 44.1709C41.6318 44.2838 41.8794 44.4492 42.0879 44.6577C42.2964 44.8662 42.4618 45.1138 42.5747 45.3863C42.6875 45.6587 42.7456 45.9507 42.7456 46.2456V57.7544H54.2544C54.85 57.7544 55.4211 57.991 55.8423 58.4121C56.2634 58.8332 56.5 59.4044 56.5 60C56.5 60.5956 56.2634 61.1668 55.8423 61.5879C55.4211 62.009 54.85 62.2456 54.2544 62.2456H42.7451L42.7456 73.7544C42.7456 74.35 42.509 74.9211 42.0879 75.3423C41.6668 75.7634 41.0956 76 40.5 76C39.9044 76 39.3332 75.7634 38.9121 75.3423C38.491 74.9211 38.2544 74.35 38.2544 73.7544L38.2538 62.2456H26.7456C26.15 62.2456 25.5789 62.009 25.1577 61.5879C24.7366 61.1668 24.5 60.5956 24.5 60C24.5 59.4044 24.7366 58.8332 25.1577 58.4121C25.5789 57.991 26.15 57.7544 26.7456 57.7544H38.2544V46.2456C38.2544 45.65 38.491 45.0789 38.9121 44.6577C39.3332 44.2366 39.9044 44 40.5 44Z" fill="#9ABCFF"/>
<path d="M78.1005 55.0015L61.7205 55.5628C60.2325 55.6138 59.1845 57.045 59.5865 58.4789L63.9005 73.8905C64.4455 75.8355 67.0555 76.1825 68.0885 74.4465L69.5265 72.0305C70.2275 70.8525 71.7975 70.5465 72.8895 71.3745L77.6235 74.9645C78.6345 75.7315 80.0765 75.5335 80.8425 74.5225L83.6305 70.8465C84.3975 69.8355 84.1995 68.3945 83.1875 67.6275L78.4565 64.0395C77.3635 63.2105 77.2355 61.6135 78.1835 60.6215L79.8415 58.885C81.2635 57.3953 80.1595 54.9309 78.1005 55.0015Z" fill="#00E89A"/>
</svg>
