<svg width="89" height="88" viewBox="0 0 89 88" fill="none" xmlns="http://www.w3.org/2000/svg">
<path d="M11.25 35.1136C11.25 27.9803 16.7958 22.1598 23.7579 21.8334C22.4789 26.2097 22.6625 30.8913 24.2802 35.151C25.8979 39.4107 28.8592 43.0099 32.7039 45.3895C30.3584 47.346 27.4134 48.4138 24.375 48.4091C17.1262 48.4091 11.25 42.4566 11.25 35.1136ZM12.6272 62.1893C13.9689 58.983 16.2102 56.2462 19.073 54.3182H14.8958C11.6082 54.3182 8.45532 55.6411 6.13065 57.996C3.80598 60.3509 2.5 63.5447 2.5 66.875L2.5 68.3523C2.50109 69.3314 2.88555 70.2702 3.56904 70.9625C4.25253 71.6549 5.17923 72.0444 6.14583 72.0455H11.2906C11.2637 71.8002 11.2501 71.5536 11.25 71.3068V69.0909C11.246 66.7199 11.7144 64.3725 12.6272 62.1893ZM68.2284 58.6452C66.8774 57.2691 65.2704 56.1782 63.5004 55.4354C61.7304 54.6927 59.8325 54.3129 57.9166 54.3182H28.75C24.8822 54.3182 21.1729 55.8746 18.438 58.645C15.7031 61.4154 14.1667 65.1729 14.1667 69.0909V71.3068C14.1677 72.286 14.5522 73.2247 15.2357 73.9171C15.9192 74.6095 16.8459 74.9989 17.8125 75H68.8541C69.8207 74.9989 70.7474 74.6095 71.4309 73.9171C72.1144 73.2247 72.4989 72.286 72.4999 71.3068V69.0909C72.5051 67.1502 72.1302 65.2277 71.397 63.4347C70.6638 61.6416 69.5868 60.0138 68.2284 58.6452ZM60.8333 27.7273C60.8333 37.5179 52.9984 45.4545 43.3333 45.4545C33.6682 45.4545 25.8333 37.5179 25.8333 27.7273C25.8333 17.9366 33.6682 10 43.3333 10C52.9984 10 60.8333 17.9366 60.8333 27.7273Z" fill="#0019BD"/>
<path d="M68.2285 58.6452C66.8775 57.2691 65.2705 56.1782 63.5005 55.4354C61.7304 54.6927 59.8326 54.3129 57.9167 54.3182H28.7501C24.8823 54.3182 21.173 55.8746 18.4381 58.645C15.7032 61.4154 14.1667 65.1729 14.1667 69.0909V71.3068C14.1678 72.286 14.5523 73.2247 15.2358 73.9171C15.9193 74.6095 16.846 74.9989 17.8126 75H68.8542C69.8208 74.9989 70.7475 74.6095 71.431 73.9171C72.1145 73.2247 72.499 72.286 72.5 71.3068V69.0909C72.5052 67.1502 72.1303 65.2277 71.3971 63.4347C70.6639 61.6416 69.5869 60.0138 68.2285 58.6452ZM60.8334 27.7273C60.8334 37.5179 52.9985 45.4545 43.3334 45.4545C33.6683 45.4545 25.8334 37.5179 25.8334 27.7273C25.8334 17.9366 33.6683 10 43.3334 10C52.9985 10 60.8334 17.9366 60.8334 27.7273Z" fill="#1765FF"/>
<path d="M71.3961 78C80.2532 78 87.5 70.8739 87.5 62C87.5 53.126 80.3874 46 71.3961 46C62.4048 46 56.5 53.126 56.5 62C56.5 70.8739 62.539 78 71.3961 78Z" fill="#E89D1A"/>
<path d="M52.5 61.5C52.4999 63.5354 52.9136 65.551 53.7176 67.4315C54.5216 69.3121 55.7001 71.0208 57.1859 72.4601C58.6716 73.8994 60.4355 75.0411 62.3768 75.8201C64.3181 76.5991 66.3988 77 68.5 77C70.6012 77 72.6819 76.5991 74.6232 75.8201C76.5645 75.0411 78.3284 73.8994 79.8141 72.4601C81.2999 71.0208 82.4784 69.3121 83.2824 67.4315C84.0864 65.551 84.5001 63.5354 84.5 61.5C84.5001 59.4646 84.0864 57.449 83.2824 55.5685C82.4784 53.688 81.2999 51.9792 79.8141 50.5399C78.3284 49.1006 76.5645 47.9588 74.6232 47.1799C72.6819 46.4009 70.6012 46 68.5 46C66.3988 46 64.3181 46.4009 62.3768 47.1799C60.4355 47.9588 58.6716 49.1006 57.1859 50.5399C55.7001 51.9792 54.5216 53.688 53.7176 55.5685C52.9136 57.449 52.4999 59.4646 52.5 61.5Z" fill="#FEB535"/>
<path d="M72.6225 52.0697C73.0976 52.2643 73.325 52.8073 73.1303 53.2824L72.7438 54.2259L72.8903 54.2825C73.5045 54.6199 74.0324 55.0239 74.472 55.4957C75.0967 56.1593 75.514 56.8929 75.7164 57.696C75.8408 58.1795 75.8624 58.6551 75.8059 59.1247C75.7259 59.7888 74.9955 60.0978 74.3765 59.8442C73.8212 59.6167 73.5621 58.9996 73.493 58.4035C73.3558 57.2185 72.3803 56.3269 71.1988 55.8429C70.5646 55.583 69.9766 55.4619 69.4328 55.4719C68.8911 55.4839 68.4286 55.6114 68.0382 55.8477C67.6557 56.0841 67.3771 56.4151 67.2001 56.8471C67.0516 57.2096 67.014 57.5452 67.0757 57.8594C67.1477 58.1877 67.2852 58.4948 67.4902 58.782C67.7053 59.0755 67.9464 59.3445 68.2136 59.5892C68.49 59.8356 68.7477 60.0487 68.9869 60.2291L68.9879 60.2298L70.3236 61.2491C70.6743 61.5133 71.0516 61.8336 71.4542 62.2086C71.8715 62.5946 72.2382 63.038 72.5544 63.5379C72.8849 64.0467 73.0963 64.6128 73.1893 65.2339C73.2849 65.8725 73.1779 66.5543 72.883 67.274C72.5409 68.109 72.0105 68.7782 71.2929 69.2758C70.5779 69.7769 69.7222 70.0511 68.7345 70.1059C68.0389 70.1461 67.3009 70.052 66.5218 69.8278L66.3766 69.7684L65.9783 70.7405C65.7837 71.2156 65.2407 71.443 64.7656 71.2483C64.2905 71.0537 64.0631 70.5107 64.2577 70.0356L64.656 69.0635L64.5599 69.0241C63.9072 68.6687 63.3529 68.2564 62.8996 67.7858C62.2467 67.1048 61.8148 66.347 61.6126 65.5141L61.6124 65.513C61.4929 65.0096 61.4748 64.5114 61.5295 64.0184C61.6071 63.319 62.37 62.9775 63.0211 63.2442C63.6034 63.4827 63.8653 64.1352 63.9091 64.7629C63.9564 65.4418 64.2726 66.0546 64.8527 66.5715C65.2733 66.9374 65.7664 67.2372 66.3343 67.4698C66.9969 67.7413 67.6293 67.8751 68.233 67.8766C68.8394 67.8732 69.3625 67.7435 69.8085 67.4941C70.249 67.2441 70.5704 66.8745 70.7745 66.3764C70.9602 65.9231 70.9784 65.5207 70.8503 65.1572C70.7139 64.7701 70.4738 64.3972 70.1224 64.0389C69.7607 63.6702 69.3529 63.3096 68.8987 62.9572L68.8975 62.9563L67.2902 61.6904C66.2529 60.8707 65.5076 59.9974 65.0685 59.0679C64.6193 58.117 64.6158 57.1108 65.0442 56.0652C65.3987 55.1998 65.946 54.5329 66.6873 54.0747C67.4279 53.6183 68.2681 53.376 69.2021 53.3447C69.7671 53.3241 70.3374 53.3822 70.9125 53.5177L71.0092 53.5551L71.4097 52.5775C71.6044 52.1024 72.1473 51.875 72.6225 52.0697Z" fill="#FEF2DC"/>
</svg>
