<svg width="32" height="32" viewBox="0 0 32 32" fill="none" xmlns="http://www.w3.org/2000/svg">
<path d="M3 16.0452C3 19.493 4.36964 22.7996 6.80761 25.2376C9.24558 27.6756 12.5522 29.0452 16 29.0452C19.4478 29.0452 22.7544 27.6756 25.1924 25.2376C27.6304 22.7996 29 19.493 29 16.0452C29 12.5974 27.6304 9.29081 25.1924 6.85284C22.7544 4.41487 19.4478 3.04523 16 3.04523C12.5522 3.04523 9.24558 4.41487 6.80761 6.85284C4.36964 9.29081 3 12.5974 3 16.0452Z" fill="#0000FF"/>
<path d="M3 15C3 18.4478 4.36964 21.7544 6.80761 24.1924C9.24558 26.6304 12.5522 28 16 28C19.4478 28 22.7544 26.6304 25.1924 24.1924C27.6304 21.7544 29 18.4478 29 15C29 11.5522 27.6304 8.24558 25.1924 5.80761C22.7544 3.36964 19.4478 2 16 2C12.5522 2 9.24558 3.36964 6.80761 5.80761C4.36964 8.24558 3 11.5522 3 15Z" fill="url(#paint0_linear_1407_18938)"/>
<path d="M3 15C3 18.4478 4.36964 21.7544 6.80761 24.1924C9.24558 26.6304 12.5522 28 16 28C19.4478 28 22.7544 26.6304 25.1924 24.1924C27.6304 21.7544 29 18.4478 29 15C29 11.5522 27.6304 8.24558 25.1924 5.80761C22.7544 3.36964 19.4478 2 16 2C12.5522 2 9.24558 3.36964 6.80761 5.80761C4.36964 8.24558 3 11.5522 3 15Z" fill="url(#paint1_angular_1407_18938)"/>
<path d="M3 15C3 18.4478 4.36964 21.7544 6.80761 24.1924C9.24558 26.6304 12.5522 28 16 28C19.4478 28 22.7544 26.6304 25.1924 24.1924C27.6304 21.7544 29 18.4478 29 15C29 11.5522 27.6304 8.24558 25.1924 5.80761C22.7544 3.36964 19.4478 2 16 2C12.5522 2 9.24558 3.36964 6.80761 5.80761C4.36964 8.24558 3 11.5522 3 15Z" stroke="white" stroke-width="0.1"/>
<path d="M6.78906 15C6.78906 17.4429 7.75951 19.7858 9.48692 21.5132C11.2143 23.2406 13.5572 24.2111 16.0001 24.2111C18.443 24.2111 20.7859 23.2406 22.5133 21.5132C24.2407 19.7858 25.2112 17.4429 25.2112 15C25.2112 12.5571 24.2407 10.2142 22.5133 8.4868C20.7859 6.75939 18.443 5.78894 16.0001 5.78894C13.5572 5.78894 11.2143 6.75939 9.48692 8.4868C7.75951 10.2142 6.78906 12.5571 6.78906 15Z" fill="url(#paint2_linear_1407_18938)"/>
<path d="M6.78906 15C6.78906 17.4429 7.75951 19.7858 9.48692 21.5132C11.2143 23.2406 13.5572 24.2111 16.0001 24.2111C18.443 24.2111 20.7859 23.2406 22.5133 21.5132C24.2407 19.7858 25.2112 17.4429 25.2112 15C25.2112 12.5571 24.2407 10.2142 22.5133 8.4868C20.7859 6.75939 18.443 5.78894 16.0001 5.78894C13.5572 5.78894 11.2143 6.75939 9.48692 8.4868C7.75951 10.2142 6.78906 12.5571 6.78906 15Z" fill="url(#paint3_angular_1407_18938)"/>
<path d="M6.78906 15C6.78906 17.4429 7.75951 19.7858 9.48692 21.5132C11.2143 23.2406 13.5572 24.2111 16.0001 24.2111C18.443 24.2111 20.7859 23.2406 22.5133 21.5132C24.2407 19.7858 25.2112 17.4429 25.2112 15C25.2112 12.5571 24.2407 10.2142 22.5133 8.4868C20.7859 6.75939 18.443 5.78894 16.0001 5.78894C13.5572 5.78894 11.2143 6.75939 9.48692 8.4868C7.75951 10.2142 6.78906 12.5571 6.78906 15Z" stroke="white" stroke-width="0.1"/>
<path d="M16.001 4.7002C21.6856 4.7002 26.3007 9.31539 26.3007 15C26.3007 20.6846 21.6856 25.2998 16.001 25.2998C10.3164 25.2998 5.70117 20.6846 5.70117 15C5.70117 9.31539 10.3164 4.7002 16.001 4.7002ZM16.001 5.78893C10.9172 5.78893 6.78991 9.91627 6.78991 15C6.78991 20.0837 10.9172 24.211 16.001 24.211C21.0847 24.211 25.212 20.0837 25.212 15C25.212 9.91627 21.0847 5.78893 16.001 5.78893Z" fill="#FA7B4D"/>
<path d="M16.001 4.7002C21.6856 4.7002 26.3007 9.31539 26.3007 15C26.3007 20.6846 21.6856 25.2998 16.001 25.2998C10.3164 25.2998 5.70117 20.6846 5.70117 15C5.70117 9.31539 10.3164 4.7002 16.001 4.7002ZM16.001 5.78893C10.9172 5.78893 6.78991 9.91627 6.78991 15C6.78991 20.0837 10.9172 24.211 16.001 24.211C21.0847 24.211 25.212 20.0837 25.212 15C25.212 9.91627 21.0847 5.78893 16.001 5.78893Z" fill="#0000FF"/>
<path d="M20.2338 11.453C19.3668 11.453 18.5483 11.7929 17.9286 12.41L13.6141 16.709C13.1181 17.2032 12.4622 17.4749 11.7687 17.4749C10.3251 17.4749 9.14904 16.2913 9.13291 14.8291C9.11543 13.3766 10.2593 12.1629 11.6894 12.1206C12.4125 12.0987 13.0993 12.3731 13.6141 12.8851L14.7136 13.9813C14.7727 14.04 14.8681 14.0387 14.9259 13.9786L15.1759 13.7206C15.2337 13.6605 15.2324 13.5636 15.1733 13.5049L14.0738 12.4086C13.4542 11.7929 12.6356 11.453 11.7673 11.453C9.92055 11.453 8.42323 13.0066 8.47699 14.896C8.52672 16.6216 9.88157 18.0387 11.5778 18.1357C12.5146 18.1889 13.4085 17.8462 14.0724 17.1841L18.387 12.8851C18.8829 12.3909 19.5389 12.1192 20.2324 12.1192C21.676 12.1192 22.8507 13.3028 22.8682 14.765C22.887 16.2175 21.7418 17.4312 20.3131 17.4735C19.5899 17.4954 18.9031 17.221 18.3883 16.709L17.2889 15.6128C17.2297 15.5541 17.1343 15.5554 17.0765 15.6155L16.8265 15.8735C16.7687 15.9336 16.77 16.0305 16.8292 16.0892L17.9286 17.1855C18.5926 17.8476 19.4864 18.1903 20.4233 18.137C22.1209 18.0415 23.4757 16.623 23.5254 14.8974C23.5792 13.0066 22.0819 11.453 20.2338 11.453Z" fill="#0000FF" stroke="#0000FF"/>
<path d="M20.2338 10.84C19.3668 10.84 18.5483 11.18 17.9286 11.797L13.6141 16.0961C13.1181 16.5903 12.4622 16.862 11.7687 16.862C10.3251 16.862 9.14904 15.6783 9.13291 14.2162C9.11543 12.7636 10.2593 11.5499 11.6894 11.5076C12.4125 11.4858 13.0993 11.7602 13.6141 12.2721L14.7136 13.3684C14.7727 13.4271 14.8681 13.4257 14.9259 13.3657L15.1759 13.1076C15.2337 13.0476 15.2324 12.9506 15.1733 12.8919L14.0738 11.7957C13.4542 11.18 12.6356 10.84 11.7673 10.84C9.92054 10.84 8.42323 12.3936 8.47699 14.2831C8.52672 16.0087 9.88157 17.4258 11.5778 17.5227C12.5146 17.576 13.4085 17.2333 14.0724 16.5712L18.387 12.2721C18.8829 11.7779 19.5389 11.5062 20.2324 11.5062C21.676 11.5062 22.8507 12.6899 22.8682 14.152C22.887 15.6046 21.7418 16.8183 20.3131 16.8606C19.5899 16.8824 18.9031 16.608 18.3883 16.0961L17.2889 14.9998C17.2297 14.9411 17.1343 14.9425 17.0765 15.0025L16.8265 15.2606C16.7687 15.3206 16.77 15.4176 16.8292 15.4763L17.9286 16.5725C18.5926 17.2347 19.4864 17.5773 20.4233 17.5241C22.1209 17.4285 23.4757 16.0101 23.5254 14.2844C23.5792 12.3936 22.0819 10.84 20.2338 10.84Z" fill="white" stroke="white"/>
<path d="M7.68262 24.9893C8.14539 24.7566 8.69923 24.5183 8.87809 23.8191C9.53567 21.2493 22.7273 7.22611 22.7273 7.22611C22.7273 7.22611 22.7395 5.50658 23.7024 4.53021C26.9139 6.89817 28.9987 10.7075 28.9987 15C28.9987 22.1749 23.1737 28 15.9987 28C12.8369 28 9.9373 26.8688 7.68262 24.9893Z" fill="#9CB8FF" fill-opacity="0.4" style="mix-blend-mode:color-dodge"/>
<path d="M22.6719 8.65313C22.4973 8.47135 22.3992 8.22948 22.3978 7.97744C22.3964 7.72541 22.4919 7.48247 22.6644 7.29878C22.7049 7.25018 22.7275 7.22614 22.7275 7.22614V7.22143C22.7268 7.22017 22.7266 7.21869 22.7268 7.21725C22.7271 7.21581 22.7278 7.21452 22.729 7.2136C22.7301 7.21265 22.7315 7.21213 22.733 7.21213C22.7344 7.21213 22.7358 7.21265 22.737 7.2136C24.9183 9.10206 26.2987 11.8911 26.2987 15C26.2987 20.6846 21.6835 25.2998 15.9989 25.2998C13.6223 25.2998 11.4326 24.4931 9.689 23.1389C9.59339 23.0631 9.52959 22.9543 9.51015 22.8339C9.49071 22.7134 9.51704 22.59 9.58395 22.488L9.58278 22.4874C9.62755 22.4191 9.68592 22.3609 9.75422 22.3162C9.82252 22.2716 9.8993 22.2415 9.97976 22.2278C10.0602 22.2142 10.1426 22.2173 10.2218 22.2369C10.301 22.2565 10.3754 22.2923 10.4401 22.3419C11.985 23.5151 13.9113 24.2111 15.9989 24.2111C21.0826 24.2111 25.21 20.0837 25.21 15C25.21 12.541 24.2443 10.3058 22.6719 8.65313Z" fill="url(#paint4_linear_1407_18938)"/>
<path d="M24.9948 16.993C25.0111 16.9163 25.0432 16.8439 25.0891 16.7803C25.1349 16.7167 25.1934 16.6633 25.261 16.6235C25.3285 16.5838 25.4036 16.5585 25.4814 16.5493C25.5593 16.5401 25.6382 16.5471 25.7131 16.57C25.7254 16.5741 25.7377 16.5778 25.7499 16.5817C25.8636 16.6175 25.96 16.6942 26.0204 16.797C26.0808 16.8998 26.101 17.0213 26.077 17.1381C25.4754 19.9862 23.6947 22.4015 21.2707 23.8493C21.1582 23.9155 21.025 23.9371 20.8974 23.9101C20.7697 23.883 20.6568 23.8091 20.581 23.7029L20.5815 23.7024C20.5362 23.639 20.5045 23.5668 20.4885 23.4905C20.4725 23.4143 20.4726 23.3355 20.4886 23.2592C20.5047 23.1829 20.5364 23.1108 20.5817 23.0474C20.6271 22.984 20.6851 22.9307 20.7521 22.8909C22.8773 21.6074 24.4432 19.4898 24.9948 16.993Z" fill="white"/>
<defs>
<linearGradient id="paint0_linear_1407_18938" x1="4.89621" y1="5.85948" x2="15.9295" y2="31.8306" gradientUnits="userSpaceOnUse">
<stop stop-color="#F5F3FF"/>
<stop offset="0.871428" stop-color="#CCC2FF"/>
<stop offset="1" stop-color="white"/>
</linearGradient>
<radialGradient id="paint1_angular_1407_18938" cx="0" cy="0" r="1" gradientUnits="userSpaceOnUse" gradientTransform="translate(7.64704 18.0746) rotate(-64.7634) scale(19.4348 18.8342)">
<stop stop-color="#E6E1FF"/>
<stop offset="1" stop-color="#C6BCFF" stop-opacity="0"/>
</radialGradient>
<linearGradient id="paint2_linear_1407_18938" x1="8.13261" y1="8.52355" x2="15.9502" y2="26.9252" gradientUnits="userSpaceOnUse">
<stop stop-color="#F5F3FF"/>
<stop offset="0.871428" stop-color="#CCC2FF"/>
<stop offset="1" stop-color="white"/>
</linearGradient>
<radialGradient id="paint3_angular_1407_18938" cx="0" cy="0" r="1" gradientUnits="userSpaceOnUse" gradientTransform="translate(10.0817 17.1785) rotate(-64.7634) scale(13.7704 13.3448)">
<stop stop-color="#E6E1FF"/>
<stop offset="1" stop-color="#C6BCFF" stop-opacity="0"/>
</radialGradient>
<linearGradient id="paint4_linear_1407_18938" x1="22.5391" y1="16.0649" x2="10.2282" y2="15.7528" gradientUnits="userSpaceOnUse">
<stop stop-color="#427BFF"/>
<stop offset="1" stop-color="#5AFFF5"/>
</linearGradient>
</defs>
</svg>
