<svg width="21" height="21" viewBox="0 0 21 21" fill="none" xmlns="http://www.w3.org/2000/svg">
<path d="M20.875 10.3535C20.875 4.83067 16.3979 0.353516 10.875 0.353516C5.35215 0.353516 0.875 4.83067 0.875 10.3535C0.875 15.8764 5.35215 20.3535 10.875 20.3535C16.3979 20.3535 20.875 15.8764 20.875 10.3535Z" fill="white"/>
<path d="M17.2271 5.48957C16.0012 4.29173 14.3243 3.55352 12.475 3.55352C8.71945 3.55352 5.675 6.59797 5.675 10.3535C5.675 14.1091 8.71945 17.1535 12.475 17.1535C14.3243 17.1535 16.0012 16.4153 17.2271 15.2175C15.7648 17.1242 13.4634 18.3535 10.875 18.3535C6.4567 18.3535 2.875 14.7718 2.875 10.3535C2.875 5.93522 6.4567 2.35352 10.875 2.35352C13.4634 2.35352 15.7648 3.58286 17.2271 5.48957Z" fill="url(#paint0_linear_337_10384)"/>
<path d="M7.39355 14.2443C8.37425 15.2026 9.71575 15.7931 11.1952 15.7931C14.1997 15.7931 16.6352 13.3576 16.6352 10.3531C16.6352 7.34867 14.1997 4.91313 11.1952 4.91313C9.71575 4.91313 8.37425 5.50367 7.39355 6.46192C8.56335 4.9366 10.4044 3.95312 12.4752 3.95312C16.0098 3.95312 18.8752 6.81852 18.8752 10.3531C18.8752 13.8877 16.0098 16.7531 12.4752 16.7531C10.4044 16.7531 8.56335 15.7696 7.39355 14.2443Z" fill="url(#paint1_linear_337_10384)"/>
<path fill-rule="evenodd" clip-rule="evenodd" d="M15.6752 10.3527C15.6752 13.0037 13.5261 15.1527 10.8752 15.1527C8.22425 15.1527 6.0752 13.0037 6.0752 10.3527C6.0752 7.70178 8.22425 5.55273 10.8752 5.55273C13.5261 5.55273 15.6752 7.70178 15.6752 10.3527ZM14.0752 10.3527C14.0752 12.12 12.6425 13.5527 10.8752 13.5527C9.1079 13.5527 7.6752 12.12 7.6752 10.3527C7.6752 8.58543 9.1079 7.15273 10.8752 7.15273C12.6425 7.15273 14.0752 8.58543 14.0752 10.3527Z" fill="url(#paint2_linear_337_10384)"/>
<defs>
<linearGradient id="paint0_linear_337_10384" x1="2.875" y1="10.0777" x2="18.875" y2="10.0777" gradientUnits="userSpaceOnUse">
<stop stop-color="#00E0FF"/>
<stop offset="1" stop-color="#562EC8"/>
</linearGradient>
<linearGradient id="paint1_linear_337_10384" x1="2.87521" y1="10.0773" x2="18.8752" y2="10.0773" gradientUnits="userSpaceOnUse">
<stop stop-color="#00E0FF"/>
<stop offset="1" stop-color="#562EC8"/>
</linearGradient>
<linearGradient id="paint2_linear_337_10384" x1="2.8752" y1="10.0769" x2="18.8752" y2="10.0769" gradientUnits="userSpaceOnUse">
<stop stop-color="#00E0FF"/>
<stop offset="1" stop-color="#562EC8"/>
</linearGradient>
</defs>
</svg>
