<svg width="127" height="25" viewBox="0 0 127 25" fill="none" xmlns="http://www.w3.org/2000/svg">
<g id="logo" clip-path="url(#clip0_3905_1106)">
<path id="Vector" d="M38.2498 2.58008C35.4296 2.58008 32.7668 3.6688 30.7511 5.64512L16.7158 19.4137C15.1024 20.9965 12.9687 21.8667 10.7125 21.8667C6.01659 21.8667 2.19076 18.0758 2.13829 13.393C2.08145 8.74076 5.80234 4.85372 10.4546 4.71817C12.8069 4.64821 15.0412 5.52706 16.7158 7.16671L20.2924 10.6777C20.4848 10.8657 20.7952 10.8614 20.9833 10.669L21.7965 9.8426C21.9845 9.65022 21.9802 9.33978 21.7878 9.15177L18.2112 5.64074C16.1955 3.6688 13.5327 2.58008 10.7082 2.58008C4.7005 2.58008 -0.170328 7.55585 0.00456723 13.6072C0.166345 19.1339 4.57371 23.6724 10.0916 23.9829C13.1392 24.1534 16.0468 23.0559 18.2068 20.9353L32.2421 7.16671C33.8555 5.5839 35.9893 4.7138 38.2454 4.7138C42.9413 4.7138 46.7628 8.50465 46.8196 13.1875C46.8809 17.8397 43.1556 21.7267 38.5077 21.8623C36.1554 21.9322 33.9211 21.0534 32.2465 19.4137L28.6699 15.9027C28.4775 15.7147 28.1671 15.7191 27.9791 15.9115L27.1658 16.7378C26.9778 16.9302 26.9822 17.2407 27.1745 17.4287L30.7511 20.9397C32.9111 23.0603 35.8187 24.1578 38.8663 23.9873C44.3886 23.6812 48.796 19.1383 48.9577 13.6116C49.1326 7.55585 44.2618 2.58008 38.2498 2.58008Z" fill="url(#paint0_linear_3905_1106)"/>
<path id="Vector_2" fill-rule="evenodd" clip-rule="evenodd" d="M125.979 21.2192C126.114 21.2192 126.254 21.1361 126.337 20.9962C126.394 20.8606 126.394 20.7207 126.307 20.5764L121.121 13.6156L125.865 7.37621C125.948 7.2669 125.975 7.10075 125.891 6.96083C125.839 6.82091 125.699 6.73784 125.533 6.73784H124.204C124.038 6.73784 123.871 6.82091 123.788 6.96083L118.821 13.4801V0.415376C118.821 0.192385 118.625 0 118.375 0H117.212C116.989 0 116.797 0.192385 116.797 0.415376V20.8038C116.797 21.0268 116.989 21.2192 117.212 21.2192H118.375C118.629 21.2192 118.821 21.0268 118.821 20.8038V13.7861L124.204 21.0268C124.313 21.1361 124.453 21.2192 124.619 21.2192H125.979ZM84.6551 15.3641V15.7795C84.6551 19.4698 82.4908 21.1881 78.4988 21.1881H73.1995C72.9765 21.1881 72.7841 20.9957 72.7841 20.7727V1.80099C72.7841 1.55176 72.9765 1.35938 73.1995 1.35938H78.0528C82.1017 1.35938 84.2922 2.80226 84.2922 6.43571V6.71117C84.2922 8.73558 83.6801 10.0692 82.4602 10.8168C83.9074 11.6782 84.6551 13.1735 84.6551 15.3641ZM74.8347 10.0123H78.1359C80.9386 10.0123 82.2678 9.15096 82.2678 6.62809V6.46194C82.2678 3.99155 80.9648 3.21764 78.1359 3.21764H74.8347V10.0123ZM82.6569 15.4472C82.6569 12.9506 81.2709 11.84 78.5775 11.84H74.8347V19.3036H78.5775C81.3234 19.3036 82.6569 18.2236 82.6569 15.7795V15.4472ZM69.4829 20.86L69.4867 20.8718C69.5119 20.951 69.537 21.0301 69.4829 21.1092C69.4261 21.1923 69.343 21.2185 69.2599 21.2185H67.6509C67.4585 21.2185 67.2617 21.1354 67.1787 20.9693L64.0437 15.6699L60.8824 20.9693C60.7994 21.1354 60.607 21.2185 60.4102 21.2185H58.8012C58.7181 21.2185 58.635 21.1923 58.5782 21.1092C58.552 21.0261 58.552 20.943 58.5782 20.86L62.85 13.7024L58.9105 7.10008C58.8843 7.017 58.8843 6.93393 58.9105 6.85085C58.9673 6.76778 59.0504 6.71094 59.1335 6.71094H60.7688C60.9349 6.71094 61.1273 6.82025 61.241 6.9864L64.0437 11.6998L66.8464 6.9864C66.9294 6.82025 67.1218 6.71094 67.3186 6.71094H68.9276C69.0107 6.71094 69.0938 6.76778 69.1506 6.85085C69.1768 6.93393 69.1768 7.017 69.1506 7.10008L65.2111 13.7024L69.4829 20.86ZM97.9117 20.7774V11.5954C97.9117 8.32044 96.3289 6.7114 93.2026 6.70703C90.5967 6.70703 88.6291 7.81762 88.1831 10.3142C88.1307 10.5635 88.3231 10.7865 88.5723 10.7865H89.7922C90.0458 10.7865 90.2644 10.6203 90.3212 10.3711C90.5705 9.23427 91.3487 8.40351 93.1239 8.40351C95.0084 8.40351 95.896 9.43102 95.896 11.5385V12.3693H93.6749C88.2094 12.3693 87.6279 15.5305 87.6279 16.8903V17.1133C87.6279 19.6362 89.2937 21.219 91.9827 21.219C93.6442 21.219 94.8947 20.8604 95.8917 20.0559V20.7774C95.8917 21.031 96.084 21.2233 96.3333 21.2233H97.4963C97.7193 21.2233 97.9117 21.0266 97.9117 20.7774ZM93.7798 14.1182H95.8829V16.3088C95.8829 18.3332 94.5537 19.4438 92.2232 19.4438C90.4218 19.4438 89.6173 18.6961 89.6173 17.004V16.9209C89.6173 15.0627 91.0077 14.1182 93.7798 14.1182ZM111.252 8.09829C112.083 8.98589 112.529 10.2058 112.529 11.6224V20.7738C112.529 20.9968 112.337 21.1892 112.083 21.1892H110.92C110.697 21.1892 110.505 20.9968 110.505 20.7738V11.6224C110.505 9.93032 109.088 8.51367 107.37 8.51367C105.677 8.51367 104.291 9.93032 104.291 11.6224V20.7738C104.291 20.9968 104.099 21.1892 103.85 21.1892H102.687C102.464 21.1892 102.245 20.9968 102.245 20.7738V7.12762C102.245 6.8784 102.468 6.68601 102.687 6.68601H103.85C104.099 6.68601 104.291 6.8784 104.291 7.12762V7.8753C105.205 7.04455 106.207 6.68164 107.649 6.68164C109.114 6.68601 110.334 7.18446 111.252 8.09829Z" fill="white"/>
</g>
<defs>
<linearGradient id="paint0_linear_3905_1106" x1="5.85417" y1="-0.0979835" x2="16.823" y2="36.1631" gradientUnits="userSpaceOnUse">
<stop stop-color="#76EED8"/>
<stop offset="0.118756" stop-color="#76EE99"/>
<stop offset="0.291667" stop-color="#4891FF"/>
<stop offset="0.452857" stop-color="#CB37FF"/>
<stop offset="0.642525" stop-color="#EF76B6"/>
<stop offset="0.865093" stop-color="#FFD159"/>
</linearGradient>
<clipPath id="clip0_3905_1106">
<rect width="127" height="25" fill="white"/>
</clipPath>
</defs>
</svg>
