<svg width="18" height="16" viewBox="0 0 18 16" fill="none" xmlns="http://www.w3.org/2000/svg">
<path id="Vector 1679" d="M1 7C0.447715 7 1.19209e-07 7.44772 1.19209e-07 8C1.19209e-07 8.55228 0.447715 9 1 9L1 7ZM17.7071 8.70711C18.0976 8.31658 18.0976 7.68342 17.7071 7.29289L11.3431 0.928933C10.9526 0.538409 10.3195 0.538409 9.92893 0.928933C9.53841 1.31946 9.53841 1.95262 9.92893 2.34315L15.5858 8L9.92893 13.6569C9.53841 14.0474 9.53841 14.6805 9.92893 15.0711C10.3195 15.4616 10.9526 15.4616 11.3431 15.0711L17.7071 8.70711ZM1 9L17 9V7L1 7L1 9Z" fill="url(#paint0_linear_2080_24575)"/>
<defs>
<linearGradient id="paint0_linear_2080_24575" x1="0.59375" y1="8.5" x2="19.853" y2="8.5" gradientUnits="userSpaceOnUse">
<stop stop-color="#76EED8"/>
<stop offset="0.118756" stop-color="#76EE99"/>
<stop offset="0.291667" stop-color="#4891FF"/>
<stop offset="0.452857" stop-color="#CB37FF"/>
<stop offset="0.642525" stop-color="#EF76B6"/>
<stop offset="0.865093" stop-color="#FFD159"/>
</linearGradient>
</defs>
</svg>
